<svg width="156" height="87" viewBox="0 0 156 87" fill="none" xmlns="http://www.w3.org/2000/svg">
<circle cx="77.4745" cy="43.4745" r="43.4745" fill="#1D2C4B"/>
<g filter="url(#filter0_d_715_3152)">
<path d="M139.75 41.75V26H153.25V28.25H155.5V35H151V37.25H153.25V39.5H155.5V41.75H148.75V39.5H146.5V37.25H144.25V41.75H139.75ZM144.25 35H148.75V32.75H151V28.25H144.25V35Z" fill="#B4FF69"/>
</g>
<g filter="url(#filter1_d_715_3152)">
<path d="M124 41.75V39.5H121.75V28.25H124V26H135.25V28.25H137.5V39.5H135.25V41.75H124ZM126.25 39.5H133V28.25H126.25V39.5Z" fill="#B4FF69"/>
</g>
<g filter="url(#filter2_d_715_3152)">
<path d="M110.5 41.75V28.25H106V26H119.5V28.25H115V41.75H110.5Z" fill="#B4FF69"/>
</g>
<g filter="url(#filter3_d_715_3152)">
<path d="M87.75 41.75V30.5H90V28.25H92.25V26H99V28.25H101.25V30.5H103.5V41.75H99V37.25H92.25V41.75H87.75ZM92.25 35H99V30.5H96.75V28.25H94.5V30.5H92.25V35Z" fill="#B4FF69"/>
</g>
<g filter="url(#filter4_d_715_3152)">
<path d="M69.75 41.75V26H74.25V28.25H76.5V30.5H78.75V32.75H81V26H85.5V41.75H81V37.25H78.75V35H76.5V32.75H74.25V41.75H69.75Z" fill="#B4FF69"/>
</g>
<g filter="url(#filter5_d_715_3152)">
<path d="M51.75 41.75V26H67.5V28.25H56.25V32.75H65.25V35H56.25V39.5H67.5V41.75H51.75Z" fill="#B4FF69"/>
</g>
<g filter="url(#filter6_d_715_3152)">
<path d="M33.75 41.75V26H38.25V32.75H40.5V30.5H42.75V28.25H45V26H49.5V28.25H47.25V30.5H45V32.75H42.75V35H45V37.25H47.25V39.5H49.5V41.75H42.75V39.5H40.5V37.25H38.25V41.75H33.75Z" fill="#B4FF69"/>
</g>
<g filter="url(#filter7_d_715_3152)">
<path d="M18 41.75V39.5H15.75V28.25H18V26H29.25V28.25H31.5V39.5H29.25V41.75H18ZM20.25 39.5H27V28.25H20.25V39.5Z" fill="#B4FF69"/>
</g>
<g filter="url(#filter8_d_715_3152)">
<path d="M4.5 41.75V28.25H0V26H13.5V28.25H9V41.75H4.5Z" fill="#B4FF69"/>
</g>
<path d="M55.125 60V53.75H56.375V55H57.625V56.25H58.875V57.5H60.125V53.75H61.375V60H60.125V58.75H58.875V57.5H57.625V56.25H56.375V60H55.125Z" fill="#B4FF69"/>
<path d="M48.875 60V53.75H52.625V55H50.125V56.25H52.625V57.5H50.125V58.75H52.625V60H48.875Z" fill="#B4FF69"/>
<path d="M41.375 60V53.75H42.625V56.25H43.875V57.5H45.125V58.75H46.375V60H45.125V58.75H43.875V57.5H42.625V60H41.375ZM45.125 55V53.75H46.375V55H45.125ZM43.875 56.25V55H45.125V56.25H43.875Z" fill="#B4FF69"/>
<path d="M35.125 60V58.75H33.875V55H35.125V53.75H37.625V55H38.875V58.75H37.625V60H35.125ZM35.125 58.7H37.625V55.05H35.125V58.7Z" fill="#B4FF69"/>
<path d="M28.875 60V55H27.625V53.75H31.375V55H30.125V60H28.875Z" fill="#B4FF69"/>
<path d="M122.875 60V53.75H126.625V55H127.875V56.25H126.625V58.75H127.875V60H126.625V58.75H125.375V57.5H124.125V60H122.875ZM124.125 56.25H126.575V55H124.125V56.25Z" fill="#B4FF69"/>
<path d="M116.625 60V58.75H115.375V55H116.625V53.75H119.125V55H120.375V58.75H119.125V60H116.625ZM116.625 58.7H119.125V55.05H116.625V58.7Z" fill="#B4FF69"/>
<path d="M110.375 60V55H109.125V53.75H112.875V55H111.625V60H110.375Z" fill="#B4FF69"/>
<path d="M101.625 60V55H102.875V53.75H105.375V55H106.625V60H105.375V57.5H102.875V60H101.625ZM102.875 56.25H105.375V55.05H102.875V56.25Z" fill="#B4FF69"/>
<path d="M94.125 60V53.75H97.875V55H99.125V56.25H97.875V58.75H99.125V60H97.875V58.75H96.625V57.5H95.375V60H94.125ZM95.375 56.25H97.825V55H95.375V56.25Z" fill="#B4FF69"/>
<path d="M87.875 60V53.75H91.625V55H89.125V56.25H91.625V57.5H89.125V58.75H91.625V60H87.875Z" fill="#B4FF69"/>
<path d="M79.125 60V53.75H80.375V55H81.625V56.25H82.875V57.5H84.125V53.75H85.375V60H84.125V58.75H82.875V57.5H81.625V56.25H80.375V60H79.125Z" fill="#B4FF69"/>
<path d="M72.875 60V53.75H76.625V55H74.125V56.25H76.625V57.5H74.125V58.75H76.625V60H72.875Z" fill="#B4FF69"/>
<path d="M66.625 55V53.75H70.375V55H66.625ZM65.375 58.75V55H66.625V58.75H65.375ZM69.125 58.75V57.5H67.875V56.25H70.375V58.75H69.125ZM66.625 60V58.75H69.125V60H66.625Z" fill="#B4FF69"/>
<defs>
<filter id="filter0_d_715_3152" x="139.75" y="26" width="15.75" height="17.75" filterUnits="userSpaceOnUse" color-interpolation-filters="sRGB">
<feFlood flood-opacity="0" result="BackgroundImageFix"/>
<feColorMatrix in="SourceAlpha" type="matrix" values="0 0 0 0 0 0 0 0 0 0 0 0 0 0 0 0 0 0 127 0" result="hardAlpha"/>
<feOffset dy="2"/>
<feComposite in2="hardAlpha" operator="out"/>
<feColorMatrix type="matrix" values="0 0 0 0 0.141176 0 0 0 0 0.141176 0 0 0 0 0.141176 0 0 0 1 0"/>
<feBlend mode="normal" in2="BackgroundImageFix" result="effect1_dropShadow_715_3152"/>
<feBlend mode="normal" in="SourceGraphic" in2="effect1_dropShadow_715_3152" result="shape"/>
</filter>
<filter id="filter1_d_715_3152" x="121.75" y="26" width="15.75" height="17.75" filterUnits="userSpaceOnUse" color-interpolation-filters="sRGB">
<feFlood flood-opacity="0" result="BackgroundImageFix"/>
<feColorMatrix in="SourceAlpha" type="matrix" values="0 0 0 0 0 0 0 0 0 0 0 0 0 0 0 0 0 0 127 0" result="hardAlpha"/>
<feOffset dy="2"/>
<feComposite in2="hardAlpha" operator="out"/>
<feColorMatrix type="matrix" values="0 0 0 0 0.141176 0 0 0 0 0.141176 0 0 0 0 0.141176 0 0 0 1 0"/>
<feBlend mode="normal" in2="BackgroundImageFix" result="effect1_dropShadow_715_3152"/>
<feBlend mode="normal" in="SourceGraphic" in2="effect1_dropShadow_715_3152" result="shape"/>
</filter>
<filter id="filter2_d_715_3152" x="106" y="26" width="13.5" height="17.75" filterUnits="userSpaceOnUse" color-interpolation-filters="sRGB">
<feFlood flood-opacity="0" result="BackgroundImageFix"/>
<feColorMatrix in="SourceAlpha" type="matrix" values="0 0 0 0 0 0 0 0 0 0 0 0 0 0 0 0 0 0 127 0" result="hardAlpha"/>
<feOffset dy="2"/>
<feComposite in2="hardAlpha" operator="out"/>
<feColorMatrix type="matrix" values="0 0 0 0 0.141176 0 0 0 0 0.141176 0 0 0 0 0.141176 0 0 0 1 0"/>
<feBlend mode="normal" in2="BackgroundImageFix" result="effect1_dropShadow_715_3152"/>
<feBlend mode="normal" in="SourceGraphic" in2="effect1_dropShadow_715_3152" result="shape"/>
</filter>
<filter id="filter3_d_715_3152" x="87.75" y="26" width="15.75" height="17.75" filterUnits="userSpaceOnUse" color-interpolation-filters="sRGB">
<feFlood flood-opacity="0" result="BackgroundImageFix"/>
<feColorMatrix in="SourceAlpha" type="matrix" values="0 0 0 0 0 0 0 0 0 0 0 0 0 0 0 0 0 0 127 0" result="hardAlpha"/>
<feOffset dy="2"/>
<feComposite in2="hardAlpha" operator="out"/>
<feColorMatrix type="matrix" values="0 0 0 0 0.141176 0 0 0 0 0.141176 0 0 0 0 0.141176 0 0 0 1 0"/>
<feBlend mode="normal" in2="BackgroundImageFix" result="effect1_dropShadow_715_3152"/>
<feBlend mode="normal" in="SourceGraphic" in2="effect1_dropShadow_715_3152" result="shape"/>
</filter>
<filter id="filter4_d_715_3152" x="69.75" y="26" width="15.75" height="17.75" filterUnits="userSpaceOnUse" color-interpolation-filters="sRGB">
<feFlood flood-opacity="0" result="BackgroundImageFix"/>
<feColorMatrix in="SourceAlpha" type="matrix" values="0 0 0 0 0 0 0 0 0 0 0 0 0 0 0 0 0 0 127 0" result="hardAlpha"/>
<feOffset dy="2"/>
<feComposite in2="hardAlpha" operator="out"/>
<feColorMatrix type="matrix" values="0 0 0 0 0.141176 0 0 0 0 0.141176 0 0 0 0 0.141176 0 0 0 1 0"/>
<feBlend mode="normal" in2="BackgroundImageFix" result="effect1_dropShadow_715_3152"/>
<feBlend mode="normal" in="SourceGraphic" in2="effect1_dropShadow_715_3152" result="shape"/>
</filter>
<filter id="filter5_d_715_3152" x="51.75" y="26" width="15.75" height="17.75" filterUnits="userSpaceOnUse" color-interpolation-filters="sRGB">
<feFlood flood-opacity="0" result="BackgroundImageFix"/>
<feColorMatrix in="SourceAlpha" type="matrix" values="0 0 0 0 0 0 0 0 0 0 0 0 0 0 0 0 0 0 127 0" result="hardAlpha"/>
<feOffset dy="2"/>
<feComposite in2="hardAlpha" operator="out"/>
<feColorMatrix type="matrix" values="0 0 0 0 0.141176 0 0 0 0 0.141176 0 0 0 0 0.141176 0 0 0 1 0"/>
<feBlend mode="normal" in2="BackgroundImageFix" result="effect1_dropShadow_715_3152"/>
<feBlend mode="normal" in="SourceGraphic" in2="effect1_dropShadow_715_3152" result="shape"/>
</filter>
<filter id="filter6_d_715_3152" x="33.75" y="26" width="15.75" height="17.75" filterUnits="userSpaceOnUse" color-interpolation-filters="sRGB">
<feFlood flood-opacity="0" result="BackgroundImageFix"/>
<feColorMatrix in="SourceAlpha" type="matrix" values="0 0 0 0 0 0 0 0 0 0 0 0 0 0 0 0 0 0 127 0" result="hardAlpha"/>
<feOffset dy="2"/>
<feComposite in2="hardAlpha" operator="out"/>
<feColorMatrix type="matrix" values="0 0 0 0 0.141176 0 0 0 0 0.141176 0 0 0 0 0.141176 0 0 0 1 0"/>
<feBlend mode="normal" in2="BackgroundImageFix" result="effect1_dropShadow_715_3152"/>
<feBlend mode="normal" in="SourceGraphic" in2="effect1_dropShadow_715_3152" result="shape"/>
</filter>
<filter id="filter7_d_715_3152" x="15.75" y="26" width="15.75" height="17.75" filterUnits="userSpaceOnUse" color-interpolation-filters="sRGB">
<feFlood flood-opacity="0" result="BackgroundImageFix"/>
<feColorMatrix in="SourceAlpha" type="matrix" values="0 0 0 0 0 0 0 0 0 0 0 0 0 0 0 0 0 0 127 0" result="hardAlpha"/>
<feOffset dy="2"/>
<feComposite in2="hardAlpha" operator="out"/>
<feColorMatrix type="matrix" values="0 0 0 0 0.141176 0 0 0 0 0.141176 0 0 0 0 0.141176 0 0 0 1 0"/>
<feBlend mode="normal" in2="BackgroundImageFix" result="effect1_dropShadow_715_3152"/>
<feBlend mode="normal" in="SourceGraphic" in2="effect1_dropShadow_715_3152" result="shape"/>
</filter>
<filter id="filter8_d_715_3152" x="0" y="26" width="13.5" height="17.75" filterUnits="userSpaceOnUse" color-interpolation-filters="sRGB">
<feFlood flood-opacity="0" result="BackgroundImageFix"/>
<feColorMatrix in="SourceAlpha" type="matrix" values="0 0 0 0 0 0 0 0 0 0 0 0 0 0 0 0 0 0 127 0" result="hardAlpha"/>
<feOffset dy="2"/>
<feComposite in2="hardAlpha" operator="out"/>
<feColorMatrix type="matrix" values="0 0 0 0 0.141176 0 0 0 0 0.141176 0 0 0 0 0.141176 0 0 0 1 0"/>
<feBlend mode="normal" in2="BackgroundImageFix" result="effect1_dropShadow_715_3152"/>
<feBlend mode="normal" in="SourceGraphic" in2="effect1_dropShadow_715_3152" result="shape"/>
</filter>
</defs>
</svg>
