<svg width="0" height="0" class="hidden">
  <symbol fill="none" xmlns="http://www.w3.org/2000/svg" viewBox="0 0 156 87" id="logo-tokenator">
    <circle cx="77.4745" cy="43.4745" r="43.4745" fill="#1D2C4B"/>
    <g filter="url(#filter0_d_715_3152)">
      <path
          d="M139.75 41.75V26H153.25V28.25H155.5V35H151V37.25H153.25V39.5H155.5V41.75H148.75V39.5H146.5V37.25H144.25V41.75H139.75ZM144.25 35H148.75V32.75H151V28.25H144.25V35Z"
          fill="#B4FF69"/>
    </g>
    <g filter="url(#filter1_d_715_3152)">
      <path
          d="M124 41.75V39.5H121.75V28.25H124V26H135.25V28.25H137.5V39.5H135.25V41.75H124ZM126.25 39.5H133V28.25H126.25V39.5Z"
          fill="#B4FF69"/>
    </g>
    <g filter="url(#filter2_d_715_3152)">
      <path d="M110.5 41.75V28.25H106V26H119.5V28.25H115V41.75H110.5Z" fill="#B4FF69"/>
    </g>
    <g filter="url(#filter3_d_715_3152)">
      <path
          d="M87.75 41.75V30.5H90V28.25H92.25V26H99V28.25H101.25V30.5H103.5V41.75H99V37.25H92.25V41.75H87.75ZM92.25 35H99V30.5H96.75V28.25H94.5V30.5H92.25V35Z"
          fill="#B4FF69"/>
    </g>
    <g filter="url(#filter4_d_715_3152)">
      <path
          d="M69.75 41.75V26H74.25V28.25H76.5V30.5H78.75V32.75H81V26H85.5V41.75H81V37.25H78.75V35H76.5V32.75H74.25V41.75H69.75Z"
          fill="#B4FF69"/>
    </g>
    <g filter="url(#filter5_d_715_3152)">
      <path d="M51.75 41.75V26H67.5V28.25H56.25V32.75H65.25V35H56.25V39.5H67.5V41.75H51.75Z" fill="#B4FF69"/>
    </g>
    <g filter="url(#filter6_d_715_3152)">
      <path
          d="M33.75 41.75V26H38.25V32.75H40.5V30.5H42.75V28.25H45V26H49.5V28.25H47.25V30.5H45V32.75H42.75V35H45V37.25H47.25V39.5H49.5V41.75H42.75V39.5H40.5V37.25H38.25V41.75H33.75Z"
          fill="#B4FF69"/>
    </g>
    <g filter="url(#filter7_d_715_3152)">
      <path d="M18 41.75V39.5H15.75V28.25H18V26H29.25V28.25H31.5V39.5H29.25V41.75H18ZM20.25 39.5H27V28.25H20.25V39.5Z"
            fill="#B4FF69"/>
    </g>
    <g filter="url(#filter8_d_715_3152)">
      <path d="M4.5 41.75V28.25H0V26H13.5V28.25H9V41.75H4.5Z" fill="#B4FF69"/>
    </g>
    <path
        d="M55.125 60V53.75H56.375V55H57.625V56.25H58.875V57.5H60.125V53.75H61.375V60H60.125V58.75H58.875V57.5H57.625V56.25H56.375V60H55.125Z"
        fill="#B4FF69"/>
    <path d="M48.875 60V53.75H52.625V55H50.125V56.25H52.625V57.5H50.125V58.75H52.625V60H48.875Z" fill="#B4FF69"/>
    <path
        d="M41.375 60V53.75H42.625V56.25H43.875V57.5H45.125V58.75H46.375V60H45.125V58.75H43.875V57.5H42.625V60H41.375ZM45.125 55V53.75H46.375V55H45.125ZM43.875 56.25V55H45.125V56.25H43.875Z"
        fill="#B4FF69"/>
    <path
        d="M35.125 60V58.75H33.875V55H35.125V53.75H37.625V55H38.875V58.75H37.625V60H35.125ZM35.125 58.7H37.625V55.05H35.125V58.7Z"
        fill="#B4FF69"/>
    <path d="M28.875 60V55H27.625V53.75H31.375V55H30.125V60H28.875Z" fill="#B4FF69"/>
    <path
        d="M122.875 60V53.75H126.625V55H127.875V56.25H126.625V58.75H127.875V60H126.625V58.75H125.375V57.5H124.125V60H122.875ZM124.125 56.25H126.575V55H124.125V56.25Z"
        fill="#B4FF69"/>
    <path
        d="M116.625 60V58.75H115.375V55H116.625V53.75H119.125V55H120.375V58.75H119.125V60H116.625ZM116.625 58.7H119.125V55.05H116.625V58.7Z"
        fill="#B4FF69"/>
    <path d="M110.375 60V55H109.125V53.75H112.875V55H111.625V60H110.375Z" fill="#B4FF69"/>
    <path
        d="M101.625 60V55H102.875V53.75H105.375V55H106.625V60H105.375V57.5H102.875V60H101.625ZM102.875 56.25H105.375V55.05H102.875V56.25Z"
        fill="#B4FF69"/>
    <path
        d="M94.125 60V53.75H97.875V55H99.125V56.25H97.875V58.75H99.125V60H97.875V58.75H96.625V57.5H95.375V60H94.125ZM95.375 56.25H97.825V55H95.375V56.25Z"
        fill="#B4FF69"/>
    <path d="M87.875 60V53.75H91.625V55H89.125V56.25H91.625V57.5H89.125V58.75H91.625V60H87.875Z" fill="#B4FF69"/>
    <path
        d="M79.125 60V53.75H80.375V55H81.625V56.25H82.875V57.5H84.125V53.75H85.375V60H84.125V58.75H82.875V57.5H81.625V56.25H80.375V60H79.125Z"
        fill="#B4FF69"/>
    <path d="M72.875 60V53.75H76.625V55H74.125V56.25H76.625V57.5H74.125V58.75H76.625V60H72.875Z" fill="#B4FF69"/>
    <path
        d="M66.625 55V53.75H70.375V55H66.625ZM65.375 58.75V55H66.625V58.75H65.375ZM69.125 58.75V57.5H67.875V56.25H70.375V58.75H69.125ZM66.625 60V58.75H69.125V60H66.625Z"
        fill="#B4FF69"/>
    <defs>
      <filter id="filter0_d_715_3152" x="139.75" y="26" width="15.75" height="17.75" filterUnits="userSpaceOnUse"
              color-interpolation-filters="sRGB">
        <feFlood flood-opacity="0" result="BackgroundImageFix"/>
        <feColorMatrix in="SourceAlpha" type="matrix" values="0 0 0 0 0 0 0 0 0 0 0 0 0 0 0 0 0 0 127 0"
                       result="hardAlpha"/>
        <feOffset dy="2"/>
        <feComposite in2="hardAlpha" operator="out"/>
        <feColorMatrix type="matrix"
                       values="0 0 0 0 0.141176 0 0 0 0 0.141176 0 0 0 0 0.141176 0 0 0 1 0"/>
        <feBlend mode="normal" in2="BackgroundImageFix" result="effect1_dropShadow_715_3152"/>
        <feBlend mode="normal" in="SourceGraphic" in2="effect1_dropShadow_715_3152" result="shape"/>
      </filter>
      <filter id="filter1_d_715_3152" x="121.75" y="26" width="15.75" height="17.75" filterUnits="userSpaceOnUse"
              color-interpolation-filters="sRGB">
        <feFlood flood-opacity="0" result="BackgroundImageFix"/>
        <feColorMatrix in="SourceAlpha" type="matrix" values="0 0 0 0 0 0 0 0 0 0 0 0 0 0 0 0 0 0 127 0"
                       result="hardAlpha"/>
        <feOffset dy="2"/>
        <feComposite in2="hardAlpha" operator="out"/>
        <feColorMatrix type="matrix"
                       values="0 0 0 0 0.141176 0 0 0 0 0.141176 0 0 0 0 0.141176 0 0 0 1 0"/>
        <feBlend mode="normal" in2="BackgroundImageFix" result="effect1_dropShadow_715_3152"/>
        <feBlend mode="normal" in="SourceGraphic" in2="effect1_dropShadow_715_3152" result="shape"/>
      </filter>
      <filter id="filter2_d_715_3152" x="106" y="26" width="13.5" height="17.75" filterUnits="userSpaceOnUse"
              color-interpolation-filters="sRGB">
        <feFlood flood-opacity="0" result="BackgroundImageFix"/>
        <feColorMatrix in="SourceAlpha" type="matrix" values="0 0 0 0 0 0 0 0 0 0 0 0 0 0 0 0 0 0 127 0"
                       result="hardAlpha"/>
        <feOffset dy="2"/>
        <feComposite in2="hardAlpha" operator="out"/>
        <feColorMatrix type="matrix"
                       values="0 0 0 0 0.141176 0 0 0 0 0.141176 0 0 0 0 0.141176 0 0 0 1 0"/>
        <feBlend mode="normal" in2="BackgroundImageFix" result="effect1_dropShadow_715_3152"/>
        <feBlend mode="normal" in="SourceGraphic" in2="effect1_dropShadow_715_3152" result="shape"/>
      </filter>
      <filter id="filter3_d_715_3152" x="87.75" y="26" width="15.75" height="17.75" filterUnits="userSpaceOnUse"
              color-interpolation-filters="sRGB">
        <feFlood flood-opacity="0" result="BackgroundImageFix"/>
        <feColorMatrix in="SourceAlpha" type="matrix" values="0 0 0 0 0 0 0 0 0 0 0 0 0 0 0 0 0 0 127 0"
                       result="hardAlpha"/>
        <feOffset dy="2"/>
        <feComposite in2="hardAlpha" operator="out"/>
        <feColorMatrix type="matrix"
                       values="0 0 0 0 0.141176 0 0 0 0 0.141176 0 0 0 0 0.141176 0 0 0 1 0"/>
        <feBlend mode="normal" in2="BackgroundImageFix" result="effect1_dropShadow_715_3152"/>
        <feBlend mode="normal" in="SourceGraphic" in2="effect1_dropShadow_715_3152" result="shape"/>
      </filter>
      <filter id="filter4_d_715_3152" x="69.75" y="26" width="15.75" height="17.75" filterUnits="userSpaceOnUse"
              color-interpolation-filters="sRGB">
        <feFlood flood-opacity="0" result="BackgroundImageFix"/>
        <feColorMatrix in="SourceAlpha" type="matrix" values="0 0 0 0 0 0 0 0 0 0 0 0 0 0 0 0 0 0 127 0"
                       result="hardAlpha"/>
        <feOffset dy="2"/>
        <feComposite in2="hardAlpha" operator="out"/>
        <feColorMatrix type="matrix"
                       values="0 0 0 0 0.141176 0 0 0 0 0.141176 0 0 0 0 0.141176 0 0 0 1 0"/>
        <feBlend mode="normal" in2="BackgroundImageFix" result="effect1_dropShadow_715_3152"/>
        <feBlend mode="normal" in="SourceGraphic" in2="effect1_dropShadow_715_3152" result="shape"/>
      </filter>
      <filter id="filter5_d_715_3152" x="51.75" y="26" width="15.75" height="17.75" filterUnits="userSpaceOnUse"
              color-interpolation-filters="sRGB">
        <feFlood flood-opacity="0" result="BackgroundImageFix"/>
        <feColorMatrix in="SourceAlpha" type="matrix" values="0 0 0 0 0 0 0 0 0 0 0 0 0 0 0 0 0 0 127 0"
                       result="hardAlpha"/>
        <feOffset dy="2"/>
        <feComposite in2="hardAlpha" operator="out"/>
        <feColorMatrix type="matrix"
                       values="0 0 0 0 0.141176 0 0 0 0 0.141176 0 0 0 0 0.141176 0 0 0 1 0"/>
        <feBlend mode="normal" in2="BackgroundImageFix" result="effect1_dropShadow_715_3152"/>
        <feBlend mode="normal" in="SourceGraphic" in2="effect1_dropShadow_715_3152" result="shape"/>
      </filter>
      <filter id="filter6_d_715_3152" x="33.75" y="26" width="15.75" height="17.75" filterUnits="userSpaceOnUse"
              color-interpolation-filters="sRGB">
        <feFlood flood-opacity="0" result="BackgroundImageFix"/>
        <feColorMatrix in="SourceAlpha" type="matrix" values="0 0 0 0 0 0 0 0 0 0 0 0 0 0 0 0 0 0 127 0"
                       result="hardAlpha"/>
        <feOffset dy="2"/>
        <feComposite in2="hardAlpha" operator="out"/>
        <feColorMatrix type="matrix"
                       values="0 0 0 0 0.141176 0 0 0 0 0.141176 0 0 0 0 0.141176 0 0 0 1 0"/>
        <feBlend mode="normal" in2="BackgroundImageFix" result="effect1_dropShadow_715_3152"/>
        <feBlend mode="normal" in="SourceGraphic" in2="effect1_dropShadow_715_3152" result="shape"/>
      </filter>
      <filter id="filter7_d_715_3152" x="15.75" y="26" width="15.75" height="17.75" filterUnits="userSpaceOnUse"
              color-interpolation-filters="sRGB">
        <feFlood flood-opacity="0" result="BackgroundImageFix"/>
        <feColorMatrix in="SourceAlpha" type="matrix" values="0 0 0 0 0 0 0 0 0 0 0 0 0 0 0 0 0 0 127 0"
                       result="hardAlpha"/>
        <feOffset dy="2"/>
        <feComposite in2="hardAlpha" operator="out"/>
        <feColorMatrix type="matrix"
                       values="0 0 0 0 0.141176 0 0 0 0 0.141176 0 0 0 0 0.141176 0 0 0 1 0"/>
        <feBlend mode="normal" in2="BackgroundImageFix" result="effect1_dropShadow_715_3152"/>
        <feBlend mode="normal" in="SourceGraphic" in2="effect1_dropShadow_715_3152" result="shape"/>
      </filter>
      <filter id="filter8_d_715_3152" x="0" y="26" width="13.5" height="17.75" filterUnits="userSpaceOnUse"
              color-interpolation-filters="sRGB">
        <feFlood flood-opacity="0" result="BackgroundImageFix"/>
        <feColorMatrix in="SourceAlpha" type="matrix" values="0 0 0 0 0 0 0 0 0 0 0 0 0 0 0 0 0 0 127 0"
                       result="hardAlpha"/>
        <feOffset dy="2"/>
        <feComposite in2="hardAlpha" operator="out"/>
        <feColorMatrix type="matrix"
                       values="0 0 0 0 0.141176 0 0 0 0 0.141176 0 0 0 0 0.141176 0 0 0 1 0"/>
        <feBlend mode="normal" in2="BackgroundImageFix" result="effect1_dropShadow_715_3152"/>
        <feBlend mode="normal" in="SourceGraphic" in2="effect1_dropShadow_715_3152" result="shape"/>
      </filter>
    </defs>
  </symbol>
  <symbol fill="none" xmlns="http://www.w3.org/2000/svg" viewBox="0 0 24 24" id="arrow-left">
    <path
        d="M15.7959 18.7041C16.0073 18.9154 16.126 19.2021 16.126 19.501C16.126 19.7999 16.0073 20.0865 15.7959 20.2978C15.5846 20.5092 15.2979 20.6279 14.999 20.6279C14.7002 20.6279 14.4135 20.5092 14.2022 20.2978L6.70216 12.7978C6.59728 12.6933 6.51407 12.5691 6.45729 12.4324C6.40051 12.2956 6.37128 12.149 6.37128 12.001C6.37128 11.8529 6.40051 11.7063 6.45729 11.5696C6.51407 11.4328 6.59728 11.3086 6.70216 11.2041L14.2022 3.7041C14.4135 3.49276 14.7002 3.37402 14.999 3.37402C15.2979 3.37402 15.5846 3.49276 15.7959 3.7041C16.0073 3.91544 16.126 4.20209 16.126 4.50097C16.126 4.79986 16.0073 5.08651 15.7959 5.29785L9.09373 12L15.7959 18.7041Z"
        fill="#FDFDFD"/>
  </symbol>
  <symbol fill="none" xmlns="http://www.w3.org/2000/svg" viewBox="0 0 16 16" id="copy">
    <path
        d="M10.5669 2.43333H12.2385C12.3831 2.43333 12.5003 2.31613 12.5003 2.17153V0.8C12.5003 0.358167 12.1421 0 11.7003 0H4.13359C3.98633 0 3.86693 0.1194 3.86693 0.266667V2.63333C3.86693 3.07517 3.50876 3.43333 3.06693 3.43333H0.70026C0.552994 3.43333 0.433594 3.55273 0.433594 3.7V15.2C0.433594 15.6418 0.79176 16 1.23359 16H11.7003C12.1421 16 12.5003 15.6418 12.5003 15.2V14.9691C12.5003 14.8414 12.4077 14.7348 12.2822 14.7109C12.0292 14.6627 11.8023 14.5441 11.6216 14.375L11.0823 13.8693C10.8183 13.622 10.6669 13.2723 10.6669 12.9103V9.174C10.6669 9.04267 10.5697 8.93223 10.4396 8.9145C9.97636 8.85137 8.96693 8.57303 8.96693 7.33333V4.03333C8.96693 3.14967 9.68326 2.43333 10.5669 2.43333ZM3.13359 13.3333C3.13359 13.4807 3.01426 13.6 2.86693 13.6C2.71959 13.6 2.60026 13.4807 2.60026 13.3333V11.348L2.45393 11.4513C2.33359 11.536 2.16726 11.5073 2.08226 11.387C1.99759 11.2667 2.02626 11.1003 2.14659 11.0153L2.71326 10.6153C2.88996 10.4908 3.13359 10.618 3.13359 10.8333V13.3333ZM3.25026 9.53333C2.67126 9.53333 2.20026 9.06233 2.20026 8.48333V7.55C2.20026 6.971 2.67126 6.5 3.25026 6.5C3.82926 6.5 4.30026 6.971 4.30026 7.55V8.48333C4.30026 9.06233 3.82926 9.53333 3.25026 9.53333ZM6.16693 12.55C6.16693 13.129 5.69593 13.6 5.11693 13.6C4.53793 13.6 4.06693 13.129 4.06693 12.55V11.6167C4.06693 11.0377 4.53793 10.5667 5.11693 10.5667C5.69593 10.5667 6.16693 11.0377 6.16693 11.6167V12.55ZM6.16693 9.26667C6.16693 9.414 6.04759 9.53333 5.90026 9.53333C5.75293 9.53333 5.63359 9.414 5.63359 9.26667V7.28133L5.48726 7.38467C5.36693 7.46933 5.20059 7.44067 5.11559 7.32033C5.03093 7.2 5.05959 7.03367 5.17993 6.94867L5.74659 6.54867C5.92329 6.4241 6.16693 6.55137 6.16693 6.76667V9.26667ZM8.16693 13.3333C8.16693 13.4807 8.0476 13.6 7.90026 13.6C7.75293 13.6 7.63359 13.4807 7.63359 13.3333V11.348L7.48726 11.4513C7.36693 11.536 7.20059 11.5073 7.11559 11.387C7.03093 11.2667 7.05959 11.1003 7.17993 11.0153L7.74659 10.6153C7.9233 10.4908 8.16693 10.618 8.16693 10.8333V13.3333ZM8.16693 9.26667C8.16693 9.414 8.0476 9.53333 7.90026 9.53333C7.75293 9.53333 7.63359 9.414 7.63359 9.26667V7.28133L7.48726 7.38467C7.36693 7.46933 7.20059 7.44067 7.11559 7.32033C7.03093 7.2 7.05959 7.03367 7.17993 6.94867L7.74659 6.54867C7.9233 6.4241 8.16693 6.55137 8.16693 6.76667V9.26667ZM8.16693 4.41667C8.16693 4.99567 7.69593 5.46667 7.11693 5.46667C6.53793 5.46667 6.06693 4.99567 6.06693 4.41667V3.48333C6.06693 2.90433 6.53793 2.43333 7.11693 2.43333C7.69593 2.43333 8.16693 2.90433 8.16693 3.48333V4.41667Z"
        fill="currentColor"/>
    <path
        d="M3.33304 0.477359V2.63279C3.33304 2.78006 3.21364 2.89946 3.06637 2.89946H0.910938C0.792138 2.89946 0.732672 2.75583 0.816672 2.67186L3.10544 0.383093C3.18941 0.299059 3.33304 0.358559 3.33304 0.477359Z"
        fill="currentColor"/>
    <path
        d="M3.76771 7.54987V8.4832C3.76771 8.7682 3.53604 8.99987 3.25104 8.99987C2.96604 8.99987 2.73438 8.7682 2.73438 8.4832V7.54987C2.73438 7.26487 2.96604 7.0332 3.25104 7.0332C3.53604 7.0332 3.76771 7.26487 3.76771 7.54987Z"
        fill="currentColor"/>
    <path
        d="M5.63294 11.6163V12.5496C5.63294 12.8346 5.40128 13.0663 5.11628 13.0663C4.83128 13.0663 4.59961 12.8346 4.59961 12.5496V11.6163C4.59961 11.3313 4.83128 11.0996 5.11628 11.0996C5.40128 11.0996 5.63294 11.3313 5.63294 11.6163Z"
        fill="currentColor"/>
    <path
        d="M7.63294 3.48346V4.4168C7.63294 4.7018 7.40128 4.93346 7.11628 4.93346C6.83128 4.93346 6.59961 4.7018 6.59961 4.4168V3.48346C6.59961 3.19846 6.83128 2.9668 7.11628 2.9668C7.40128 2.9668 7.63294 3.19846 7.63294 3.48346Z"
        fill="currentColor"/>
    <path
        d="M14.5 2.9668H10.5667C9.97867 2.9668 9.5 3.44513 9.5 4.03346V7.33346C9.5 7.9218 9.97867 8.40013 10.5667 8.40013H11.2V12.9105C11.2 13.1258 11.29 13.3335 11.447 13.4805L11.986 13.9861C12.2919 14.2722 12.7715 14.2752 13.0807 13.9861L13.5847 13.5135C13.8523 13.2625 13.9113 12.8688 13.7287 12.5561L13.585 12.3091C13.498 12.1598 13.498 11.9738 13.585 11.8245L13.7287 11.5775C13.9123 11.2625 13.9123 10.8711 13.7287 10.5561L13.585 10.3091C13.498 10.1598 13.4981 9.97383 13.585 9.82446C13.7405 9.55733 13.8667 9.38476 13.8667 9.0668V8.40013H14.5C15.088 8.40013 15.5667 7.9218 15.5667 7.33346V4.03346C15.5667 3.44513 15.088 2.9668 14.5 2.9668ZM13.6 5.13346H11.4667C11.3193 5.13346 11.2 5.01413 11.2 4.8668C11.2 4.71946 11.3193 4.60013 11.4667 4.60013H13.6C13.7473 4.60013 13.8667 4.71946 13.8667 4.8668C13.8667 5.01413 13.7473 5.13346 13.6 5.13346Z"
        fill="currentColor"/>
  </symbol>
  <symbol fill="none" xmlns="http://www.w3.org/2000/svg" viewBox="0 0 12 13" id="wallet-edit">
    <path
        d="M4.23649 10.999L1.51468 8.27721L8.09785 1.69404L10.8197 4.41585L4.23649 10.999ZM1.26026 8.75666L3.75704 11.2534L0.0136719 12.5L1.26026 8.75666ZM11.6568 3.5823L11.1847 4.05439L8.45931 1.32898L8.93141 0.856884C9.40696 0.381039 10.1781 0.381039 10.6537 0.856884L11.6568 1.86C12.1289 2.33715 12.1289 3.1053 11.6568 3.5823Z"
        fill="currentColor"/>
  </symbol>
  <symbol fill="none" xmlns="http://www.w3.org/2000/svg" viewBox="0 0 14 14" id="wallet-exit">
    <path
        d="M13.8896 7.29076L10.3896 11.2283C10.3311 11.2952 10.2533 11.3425 10.167 11.3636C10.0806 11.3847 9.98983 11.3787 9.90701 11.3464C9.82422 11.3147 9.75297 11.2586 9.70263 11.1857C9.65229 11.1127 9.62523 11.0262 9.625 10.9375V8.3125H4.8125C4.69647 8.3125 4.58519 8.26641 4.50314 8.18436C4.42109 8.10231 4.375 7.99103 4.375 7.875V6.125C4.375 6.00897 4.42109 5.89769 4.50314 5.81564C4.58519 5.73359 4.69647 5.6875 4.8125 5.6875H9.625V3.0625C9.62496 2.97375 9.65191 2.88709 9.70228 2.81402C9.75264 2.74095 9.82404 2.68492 9.90699 2.65337C9.98994 2.62183 10.0805 2.61626 10.1667 2.6374C10.2529 2.65854 10.3306 2.70539 10.3896 2.77174L13.8896 6.70924C13.9607 6.78939 14 6.89284 14 7C14 7.10716 13.9607 7.21061 13.8896 7.29076ZM4.8125 11.375H2.625V2.625H4.8125C4.92853 2.625 5.03981 2.57891 5.12186 2.49686C5.20391 2.41481 5.25 2.30353 5.25 2.1875V0.4375C5.25 0.321468 5.20391 0.210188 5.12186 0.128141C5.03981 0.0460937 4.92853 0 4.8125 0H0.4375C0.321468 0 0.210188 0.0460937 0.128141 0.128141C0.0460937 0.210188 0 0.321468 0 0.4375V13.5625C0 13.6785 0.0460937 13.7898 0.128141 13.8719C0.210188 13.9539 0.321468 14 0.4375 14H4.8125C4.92853 14 5.03981 13.9539 5.12186 13.8719C5.20391 13.7898 5.25 13.6785 5.25 13.5625V11.8125C5.25 11.6965 5.20391 11.5852 5.12186 11.5031C5.03981 11.4211 4.92853 11.375 4.8125 11.375Z"
        fill="currentColor"/>
  </symbol>
  <symbol fill="none" xmlns="http://www.w3.org/2000/svg" viewBox="0 0 16 16" id="close">
    <path
        d="M3.55636 3.00039C3.44571 3.00041 3.33759 3.03351 3.24589 3.09543C3.15419 3.15735 3.08309 3.24527 3.04174 3.3479C3.00038 3.45053 2.99066 3.56321 3.0138 3.67141C3.03695 3.77961 3.09192 3.87838 3.17165 3.95511L7.21597 7.99942L3.17165 12.0438C3.11827 12.0948 3.07559 12.1559 3.04613 12.2236C3.01666 12.2912 3.001 12.3641 3.00005 12.4379C2.9991 12.5117 3.01288 12.585 3.0406 12.6534C3.06831 12.7218 3.10939 12.784 3.16145 12.8363C3.2135 12.8887 3.27547 12.9301 3.34373 12.9582C3.41199 12.9863 3.48517 13.0005 3.55898 13C3.63279 12.9994 3.70576 12.9841 3.7736 12.9551C3.84144 12.926 3.90279 12.8836 3.95407 12.8305L8.00165 8.78512L12.0471 12.8305C12.0987 12.8823 12.16 12.9234 12.2276 12.9515C12.2951 12.9795 12.3675 12.994 12.4406 12.9941C12.5138 12.9942 12.5862 12.9798 12.6538 12.9519C12.7213 12.9239 12.7827 12.8829 12.8344 12.8312C12.8862 12.7794 12.9272 12.7181 12.9551 12.6505C12.9831 12.5829 12.9974 12.5105 12.9974 12.4373C12.9973 12.3642 12.9829 12.2918 12.9548 12.2243C12.9267 12.1567 12.8856 12.0954 12.8338 12.0438L8.78732 7.99942L12.8338 3.95511C12.9149 3.87719 12.9705 3.77649 12.9931 3.66629C13.0156 3.55609 13.0042 3.44159 12.9602 3.33805C12.9163 3.2345 12.8419 3.14678 12.7469 3.08647C12.652 3.02617 12.5409 2.99615 12.4285 3.00039C12.2844 3.00469 12.1476 3.06496 12.0471 3.16839L8.00165 7.21379L3.95407 3.16839C3.90236 3.11524 3.84053 3.07296 3.77222 3.04411C3.70391 3.01525 3.63051 3.0004 3.55636 3.00039Z"
        fill="currentColor"/>
  </symbol>
  <symbol fill="none" xmlns="http://www.w3.org/2000/svg" viewBox="0 0 25 19" id="header-menu">
    <path
        d="M25 9.5C25 9.89782 24.842 10.2794 24.5607 10.5607C24.2794 10.842 23.8978 11 23.5 11H1.5C1.10218 11 0.720644 10.842 0.43934 10.5607C0.158035 10.2794 0 9.89782 0 9.5C0 9.10218 0.158035 8.72064 0.43934 8.43934C0.720644 8.15804 1.10218 8 1.5 8H23.5C23.8978 8 24.2794 8.15804 24.5607 8.43934C24.842 8.72064 25 9.10218 25 9.5ZM1.5 3H23.5C23.8978 3 24.2794 2.84196 24.5607 2.56066C24.842 2.27936 25 1.89782 25 1.5C25 1.10218 24.842 0.720644 24.5607 0.43934C24.2794 0.158035 23.8978 0 23.5 0H1.5C1.10218 0 0.720644 0.158035 0.43934 0.43934C0.158035 0.720644 0 1.10218 0 1.5C0 1.89782 0.158035 2.27936 0.43934 2.56066C0.720644 2.84196 1.10218 3 1.5 3ZM23.5 16H1.5C1.10218 16 0.720644 16.158 0.43934 16.4393C0.158035 16.7206 0 17.1022 0 17.5C0 17.8978 0.158035 18.2794 0.43934 18.5607C0.720644 18.842 1.10218 19 1.5 19H23.5C23.8978 19 24.2794 18.842 24.5607 18.5607C24.842 18.2794 25 17.8978 25 17.5C25 17.1022 24.842 16.7206 24.5607 16.4393C24.2794 16.158 23.8978 16 23.5 16Z"
        fill="currentColor"/>
  </symbol>
</svg>
