<svg width="0" height="0" class="hidden">
  <symbol fill="none" xmlns="http://www.w3.org/2000/svg" viewBox="0 0 156 87" id="logo-tokenator">
    <circle cx="77.4745" cy="43.4745" r="43.4745" fill="#1D2C4B" />
    <g filter="url(#filter0_d_715_3152)">
      <path
        d="M139.75 41.75V26H153.25V28.25H155.5V35H151V37.25H153.25V39.5H155.5V41.75H148.75V39.5H146.5V37.25H144.25V41.75H139.75ZM144.25 35H148.75V32.75H151V28.25H144.25V35Z"
        fill="#B4FF69" />
    </g>
    <g filter="url(#filter1_d_715_3152)">
      <path
        d="M124 41.75V39.5H121.75V28.25H124V26H135.25V28.25H137.5V39.5H135.25V41.75H124ZM126.25 39.5H133V28.25H126.25V39.5Z"
        fill="#B4FF69" />
    </g>
    <g filter="url(#filter2_d_715_3152)">
      <path d="M110.5 41.75V28.25H106V26H119.5V28.25H115V41.75H110.5Z" fill="#B4FF69" />
    </g>
    <g filter="url(#filter3_d_715_3152)">
      <path
        d="M87.75 41.75V30.5H90V28.25H92.25V26H99V28.25H101.25V30.5H103.5V41.75H99V37.25H92.25V41.75H87.75ZM92.25 35H99V30.5H96.75V28.25H94.5V30.5H92.25V35Z"
        fill="#B4FF69" />
    </g>
    <g filter="url(#filter4_d_715_3152)">
      <path
        d="M69.75 41.75V26H74.25V28.25H76.5V30.5H78.75V32.75H81V26H85.5V41.75H81V37.25H78.75V35H76.5V32.75H74.25V41.75H69.75Z"
        fill="#B4FF69" />
    </g>
    <g filter="url(#filter5_d_715_3152)">
      <path d="M51.75 41.75V26H67.5V28.25H56.25V32.75H65.25V35H56.25V39.5H67.5V41.75H51.75Z"
        fill="#B4FF69" />
    </g>
    <g filter="url(#filter6_d_715_3152)">
      <path
        d="M33.75 41.75V26H38.25V32.75H40.5V30.5H42.75V28.25H45V26H49.5V28.25H47.25V30.5H45V32.75H42.75V35H45V37.25H47.25V39.5H49.5V41.75H42.75V39.5H40.5V37.25H38.25V41.75H33.75Z"
        fill="#B4FF69" />
    </g>
    <g filter="url(#filter7_d_715_3152)">
      <path
        d="M18 41.75V39.5H15.75V28.25H18V26H29.25V28.25H31.5V39.5H29.25V41.75H18ZM20.25 39.5H27V28.25H20.25V39.5Z"
        fill="#B4FF69" />
    </g>
    <g filter="url(#filter8_d_715_3152)">
      <path d="M4.5 41.75V28.25H0V26H13.5V28.25H9V41.75H4.5Z" fill="#B4FF69" />
    </g>
    <path
      d="M55.125 60V53.75H56.375V55H57.625V56.25H58.875V57.5H60.125V53.75H61.375V60H60.125V58.75H58.875V57.5H57.625V56.25H56.375V60H55.125Z"
      fill="#B4FF69" />
    <path d="M48.875 60V53.75H52.625V55H50.125V56.25H52.625V57.5H50.125V58.75H52.625V60H48.875Z"
      fill="#B4FF69" />
    <path
      d="M41.375 60V53.75H42.625V56.25H43.875V57.5H45.125V58.75H46.375V60H45.125V58.75H43.875V57.5H42.625V60H41.375ZM45.125 55V53.75H46.375V55H45.125ZM43.875 56.25V55H45.125V56.25H43.875Z"
      fill="#B4FF69" />
    <path
      d="M35.125 60V58.75H33.875V55H35.125V53.75H37.625V55H38.875V58.75H37.625V60H35.125ZM35.125 58.7H37.625V55.05H35.125V58.7Z"
      fill="#B4FF69" />
    <path d="M28.875 60V55H27.625V53.75H31.375V55H30.125V60H28.875Z" fill="#B4FF69" />
    <path
      d="M122.875 60V53.75H126.625V55H127.875V56.25H126.625V58.75H127.875V60H126.625V58.75H125.375V57.5H124.125V60H122.875ZM124.125 56.25H126.575V55H124.125V56.25Z"
      fill="#B4FF69" />
    <path
      d="M116.625 60V58.75H115.375V55H116.625V53.75H119.125V55H120.375V58.75H119.125V60H116.625ZM116.625 58.7H119.125V55.05H116.625V58.7Z"
      fill="#B4FF69" />
    <path d="M110.375 60V55H109.125V53.75H112.875V55H111.625V60H110.375Z" fill="#B4FF69" />
    <path
      d="M101.625 60V55H102.875V53.75H105.375V55H106.625V60H105.375V57.5H102.875V60H101.625ZM102.875 56.25H105.375V55.05H102.875V56.25Z"
      fill="#B4FF69" />
    <path
      d="M94.125 60V53.75H97.875V55H99.125V56.25H97.875V58.75H99.125V60H97.875V58.75H96.625V57.5H95.375V60H94.125ZM95.375 56.25H97.825V55H95.375V56.25Z"
      fill="#B4FF69" />
    <path d="M87.875 60V53.75H91.625V55H89.125V56.25H91.625V57.5H89.125V58.75H91.625V60H87.875Z"
      fill="#B4FF69" />
    <path
      d="M79.125 60V53.75H80.375V55H81.625V56.25H82.875V57.5H84.125V53.75H85.375V60H84.125V58.75H82.875V57.5H81.625V56.25H80.375V60H79.125Z"
      fill="#B4FF69" />
    <path d="M72.875 60V53.75H76.625V55H74.125V56.25H76.625V57.5H74.125V58.75H76.625V60H72.875Z"
      fill="#B4FF69" />
    <path
      d="M66.625 55V53.75H70.375V55H66.625ZM65.375 58.75V55H66.625V58.75H65.375ZM69.125 58.75V57.5H67.875V56.25H70.375V58.75H69.125ZM66.625 60V58.75H69.125V60H66.625Z"
      fill="#B4FF69" />
    <defs>
      <filter id="filter0_d_715_3152" x="139.75" y="26" width="15.75" height="17.75"
        filterUnits="userSpaceOnUse"
        color-interpolation-filters="sRGB">
        <feFlood flood-opacity="0" result="BackgroundImageFix" />
        <feColorMatrix in="SourceAlpha" type="matrix"
          values="0 0 0 0 0 0 0 0 0 0 0 0 0 0 0 0 0 0 127 0"
          result="hardAlpha" />
        <feOffset dy="2" />
        <feComposite in2="hardAlpha" operator="out" />
        <feColorMatrix type="matrix"
          values="0 0 0 0 0.141176 0 0 0 0 0.141176 0 0 0 0 0.141176 0 0 0 1 0" />
        <feBlend mode="normal" in2="BackgroundImageFix" result="effect1_dropShadow_715_3152" />
        <feBlend mode="normal" in="SourceGraphic" in2="effect1_dropShadow_715_3152" result="shape" />
      </filter>
      <filter id="filter1_d_715_3152" x="121.75" y="26" width="15.75" height="17.75"
        filterUnits="userSpaceOnUse"
        color-interpolation-filters="sRGB">
        <feFlood flood-opacity="0" result="BackgroundImageFix" />
        <feColorMatrix in="SourceAlpha" type="matrix"
          values="0 0 0 0 0 0 0 0 0 0 0 0 0 0 0 0 0 0 127 0"
          result="hardAlpha" />
        <feOffset dy="2" />
        <feComposite in2="hardAlpha" operator="out" />
        <feColorMatrix type="matrix"
          values="0 0 0 0 0.141176 0 0 0 0 0.141176 0 0 0 0 0.141176 0 0 0 1 0" />
        <feBlend mode="normal" in2="BackgroundImageFix" result="effect1_dropShadow_715_3152" />
        <feBlend mode="normal" in="SourceGraphic" in2="effect1_dropShadow_715_3152" result="shape" />
      </filter>
      <filter id="filter2_d_715_3152" x="106" y="26" width="13.5" height="17.75"
        filterUnits="userSpaceOnUse"
        color-interpolation-filters="sRGB">
        <feFlood flood-opacity="0" result="BackgroundImageFix" />
        <feColorMatrix in="SourceAlpha" type="matrix"
          values="0 0 0 0 0 0 0 0 0 0 0 0 0 0 0 0 0 0 127 0"
          result="hardAlpha" />
        <feOffset dy="2" />
        <feComposite in2="hardAlpha" operator="out" />
        <feColorMatrix type="matrix"
          values="0 0 0 0 0.141176 0 0 0 0 0.141176 0 0 0 0 0.141176 0 0 0 1 0" />
        <feBlend mode="normal" in2="BackgroundImageFix" result="effect1_dropShadow_715_3152" />
        <feBlend mode="normal" in="SourceGraphic" in2="effect1_dropShadow_715_3152" result="shape" />
      </filter>
      <filter id="filter3_d_715_3152" x="87.75" y="26" width="15.75" height="17.75"
        filterUnits="userSpaceOnUse"
        color-interpolation-filters="sRGB">
        <feFlood flood-opacity="0" result="BackgroundImageFix" />
        <feColorMatrix in="SourceAlpha" type="matrix"
          values="0 0 0 0 0 0 0 0 0 0 0 0 0 0 0 0 0 0 127 0"
          result="hardAlpha" />
        <feOffset dy="2" />
        <feComposite in2="hardAlpha" operator="out" />
        <feColorMatrix type="matrix"
          values="0 0 0 0 0.141176 0 0 0 0 0.141176 0 0 0 0 0.141176 0 0 0 1 0" />
        <feBlend mode="normal" in2="BackgroundImageFix" result="effect1_dropShadow_715_3152" />
        <feBlend mode="normal" in="SourceGraphic" in2="effect1_dropShadow_715_3152" result="shape" />
      </filter>
      <filter id="filter4_d_715_3152" x="69.75" y="26" width="15.75" height="17.75"
        filterUnits="userSpaceOnUse"
        color-interpolation-filters="sRGB">
        <feFlood flood-opacity="0" result="BackgroundImageFix" />
        <feColorMatrix in="SourceAlpha" type="matrix"
          values="0 0 0 0 0 0 0 0 0 0 0 0 0 0 0 0 0 0 127 0"
          result="hardAlpha" />
        <feOffset dy="2" />
        <feComposite in2="hardAlpha" operator="out" />
        <feColorMatrix type="matrix"
          values="0 0 0 0 0.141176 0 0 0 0 0.141176 0 0 0 0 0.141176 0 0 0 1 0" />
        <feBlend mode="normal" in2="BackgroundImageFix" result="effect1_dropShadow_715_3152" />
        <feBlend mode="normal" in="SourceGraphic" in2="effect1_dropShadow_715_3152" result="shape" />
      </filter>
      <filter id="filter5_d_715_3152" x="51.75" y="26" width="15.75" height="17.75"
        filterUnits="userSpaceOnUse"
        color-interpolation-filters="sRGB">
        <feFlood flood-opacity="0" result="BackgroundImageFix" />
        <feColorMatrix in="SourceAlpha" type="matrix"
          values="0 0 0 0 0 0 0 0 0 0 0 0 0 0 0 0 0 0 127 0"
          result="hardAlpha" />
        <feOffset dy="2" />
        <feComposite in2="hardAlpha" operator="out" />
        <feColorMatrix type="matrix"
          values="0 0 0 0 0.141176 0 0 0 0 0.141176 0 0 0 0 0.141176 0 0 0 1 0" />
        <feBlend mode="normal" in2="BackgroundImageFix" result="effect1_dropShadow_715_3152" />
        <feBlend mode="normal" in="SourceGraphic" in2="effect1_dropShadow_715_3152" result="shape" />
      </filter>
      <filter id="filter6_d_715_3152" x="33.75" y="26" width="15.75" height="17.75"
        filterUnits="userSpaceOnUse"
        color-interpolation-filters="sRGB">
        <feFlood flood-opacity="0" result="BackgroundImageFix" />
        <feColorMatrix in="SourceAlpha" type="matrix"
          values="0 0 0 0 0 0 0 0 0 0 0 0 0 0 0 0 0 0 127 0"
          result="hardAlpha" />
        <feOffset dy="2" />
        <feComposite in2="hardAlpha" operator="out" />
        <feColorMatrix type="matrix"
          values="0 0 0 0 0.141176 0 0 0 0 0.141176 0 0 0 0 0.141176 0 0 0 1 0" />
        <feBlend mode="normal" in2="BackgroundImageFix" result="effect1_dropShadow_715_3152" />
        <feBlend mode="normal" in="SourceGraphic" in2="effect1_dropShadow_715_3152" result="shape" />
      </filter>
      <filter id="filter7_d_715_3152" x="15.75" y="26" width="15.75" height="17.75"
        filterUnits="userSpaceOnUse"
        color-interpolation-filters="sRGB">
        <feFlood flood-opacity="0" result="BackgroundImageFix" />
        <feColorMatrix in="SourceAlpha" type="matrix"
          values="0 0 0 0 0 0 0 0 0 0 0 0 0 0 0 0 0 0 127 0"
          result="hardAlpha" />
        <feOffset dy="2" />
        <feComposite in2="hardAlpha" operator="out" />
        <feColorMatrix type="matrix"
          values="0 0 0 0 0.141176 0 0 0 0 0.141176 0 0 0 0 0.141176 0 0 0 1 0" />
        <feBlend mode="normal" in2="BackgroundImageFix" result="effect1_dropShadow_715_3152" />
        <feBlend mode="normal" in="SourceGraphic" in2="effect1_dropShadow_715_3152" result="shape" />
      </filter>
      <filter id="filter8_d_715_3152" x="0" y="26" width="13.5" height="17.75"
        filterUnits="userSpaceOnUse"
        color-interpolation-filters="sRGB">
        <feFlood flood-opacity="0" result="BackgroundImageFix" />
        <feColorMatrix in="SourceAlpha" type="matrix"
          values="0 0 0 0 0 0 0 0 0 0 0 0 0 0 0 0 0 0 127 0"
          result="hardAlpha" />
        <feOffset dy="2" />
        <feComposite in2="hardAlpha" operator="out" />
        <feColorMatrix type="matrix"
          values="0 0 0 0 0.141176 0 0 0 0 0.141176 0 0 0 0 0.141176 0 0 0 1 0" />
        <feBlend mode="normal" in2="BackgroundImageFix" result="effect1_dropShadow_715_3152" />
        <feBlend mode="normal" in="SourceGraphic" in2="effect1_dropShadow_715_3152" result="shape" />
      </filter>
    </defs>
  </symbol>
  <symbol fill="none" xmlns="http://www.w3.org/2000/svg" viewBox="0 0 24 24" id="arrow-left">
    <path
      d="M15.7959 18.7041C16.0073 18.9154 16.126 19.2021 16.126 19.501C16.126 19.7999 16.0073 20.0865 15.7959 20.2978C15.5846 20.5092 15.2979 20.6279 14.999 20.6279C14.7002 20.6279 14.4135 20.5092 14.2022 20.2978L6.70216 12.7978C6.59728 12.6933 6.51407 12.5691 6.45729 12.4324C6.40051 12.2956 6.37128 12.149 6.37128 12.001C6.37128 11.8529 6.40051 11.7063 6.45729 11.5696C6.51407 11.4328 6.59728 11.3086 6.70216 11.2041L14.2022 3.7041C14.4135 3.49276 14.7002 3.37402 14.999 3.37402C15.2979 3.37402 15.5846 3.49276 15.7959 3.7041C16.0073 3.91544 16.126 4.20209 16.126 4.50097C16.126 4.79986 16.0073 5.08651 15.7959 5.29785L9.09373 12L15.7959 18.7041Z"
      fill="currentColor" />
  </symbol>
  <symbol fill="none" xmlns="http://www.w3.org/2000/svg" viewBox="0 0 17 16" id="copy">
    <path
      d="M14 1.75H6C5.80109 1.75 5.61032 1.82902 5.46967 1.96967C5.32902 2.11032 5.25 2.30109 5.25 2.5V4.75H3C2.80109 4.75 2.61032 4.82902 2.46967 4.96967C2.32902 5.11032 2.25 5.30109 2.25 5.5V13.5C2.25 13.6989 2.32902 13.8897 2.46967 14.0303C2.61032 14.171 2.80109 14.25 3 14.25H11C11.1989 14.25 11.3897 14.171 11.5303 14.0303C11.671 13.8897 11.75 13.6989 11.75 13.5V11.25H14C14.1989 11.25 14.3897 11.171 14.5303 11.0303C14.671 10.8897 14.75 10.6989 14.75 10.5V2.5C14.75 2.30109 14.671 2.11032 14.5303 1.96967C14.3897 1.82902 14.1989 1.75 14 1.75ZM10.25 12.75H3.75V6.25H10.25V12.75ZM13.25 9.75H11.75V5.5C11.75 5.30109 11.671 5.11032 11.5303 4.96967C11.3897 4.82902 11.1989 4.75 11 4.75H6.75V3.25H13.25V9.75Z"
      fill="currentColor" />
  </symbol>
  <symbol fill="none" xmlns="http://www.w3.org/2000/svg" viewBox="0 0 16 16" id="link">
    <path
      d="M5.46874 9.46986L9.46874 5.46987C9.5385 5.4001 9.62133 5.34476 9.71248 5.307C9.80363 5.26925 9.90133 5.24981 9.99999 5.24981C10.0986 5.24981 10.1963 5.26925 10.2875 5.307C10.3787 5.34476 10.4615 5.4001 10.5312 5.46987C10.601 5.53963 10.6563 5.62245 10.6941 5.7136C10.7319 5.80476 10.7513 5.90245 10.7513 6.00112C10.7513 6.09978 10.7319 6.19747 10.6941 6.28863C10.6563 6.37978 10.601 6.4626 10.5312 6.53237L6.53124 10.5324C6.39034 10.6733 6.19924 10.7524 5.99999 10.7524C5.80073 10.7524 5.60963 10.6733 5.46874 10.5324C5.32784 10.3915 5.24869 10.2004 5.24869 10.0011C5.24869 9.80186 5.32784 9.61076 5.46874 9.46986ZM13.6562 2.34487C12.9523 1.6425 11.9985 1.24805 11.0041 1.24805C10.0096 1.24805 9.05582 1.6425 8.35186 2.34487L6.46936 4.22549C6.32847 4.36639 6.24931 4.55748 6.24931 4.75674C6.24931 4.8554 6.26874 4.9531 6.3065 5.04425C6.34426 5.1354 6.3996 5.21823 6.46936 5.28799C6.53913 5.35776 6.62195 5.4131 6.7131 5.45085C6.80425 5.48861 6.90195 5.50804 7.00061 5.50804C7.19987 5.50804 7.39097 5.42889 7.53186 5.28799L9.41124 3.40924C9.83326 2.98713 10.4057 2.74996 11.0026 2.7499C11.5995 2.74984 12.1719 2.9869 12.5941 3.40893C13.0162 3.83095 13.2533 4.40338 13.2534 5.00027C13.2534 5.59716 13.0164 6.16963 12.5944 6.59174L10.7125 8.46987C10.6427 8.53963 10.5874 8.62245 10.5496 8.7136C10.5119 8.80476 10.4924 8.90245 10.4924 9.00112C10.4924 9.09978 10.5119 9.19747 10.5496 9.28862C10.5874 9.37978 10.6427 9.4626 10.7125 9.53236C10.7823 9.60213 10.8651 9.65747 10.9562 9.69523C11.0474 9.73298 11.1451 9.75242 11.2437 9.75242C11.3424 9.75242 11.4401 9.73298 11.5312 9.69523C11.6224 9.65747 11.7052 9.60213 11.775 9.53236L13.655 7.65362C14.3577 6.94923 14.7522 5.99477 14.7519 4.99979C14.7515 4.00481 14.3563 3.05063 13.6531 2.34674L13.6562 2.34487ZM8.46999 10.7124L6.59061 12.5924C6.38161 12.8013 6.13349 12.9671 5.86042 13.0802C5.58736 13.1932 5.29469 13.2514 4.99914 13.2514C4.70359 13.2514 4.41094 13.1931 4.1379 13.08C3.86485 12.9669 3.61677 12.8011 3.4078 12.5921C2.98577 12.1699 2.74872 11.5975 2.74877 11.0006C2.74883 10.4037 2.986 9.83127 3.40811 9.40924L5.28686 7.52987C5.35663 7.4601 5.41197 7.37728 5.44972 7.28613C5.48748 7.19497 5.50691 7.09728 5.50691 6.99862C5.50691 6.89995 5.48748 6.80226 5.44972 6.7111C5.41197 6.61995 5.35663 6.53713 5.28686 6.46737C5.2171 6.3976 5.13428 6.34226 5.04312 6.3045C4.95197 6.26675 4.85427 6.24731 4.75561 6.24731C4.65695 6.24731 4.55925 6.26675 4.4681 6.3045C4.37695 6.34226 4.29413 6.3976 4.22436 6.46737L2.34686 8.34862C1.99857 8.69695 1.7223 9.11047 1.53382 9.56557C1.34535 10.0207 1.24835 10.5084 1.24838 11.001C1.24844 11.9958 1.64369 12.9499 2.34718 13.6533C3.05066 14.3567 4.00476 14.7518 4.99958 14.7518C5.99441 14.7517 6.94846 14.3565 7.65186 13.653L9.53061 11.7736C9.67151 11.6327 9.75066 11.4416 9.75066 11.2424C9.75066 11.0431 9.67151 10.852 9.53061 10.7111C9.38972 10.5702 9.19862 10.4911 8.99936 10.4911C8.80011 10.4911 8.60901 10.5702 8.46811 10.7111L8.46999 10.7124Z"
      fill="currentColor" />
  </symbol>
  <symbol fill="none" xmlns="http://www.w3.org/2000/svg" viewBox="0 0 16 16" id="tokenomics">
    <path
      d="M12.4069 3.50563C11.6525 2.2125 10.62 1.5 9.5 1.5H6.5C5.38 1.5 4.3475 2.2125 3.59313 3.50563C2.88813 4.71375 2.5 6.3125 2.5 8C2.5 9.6875 2.88813 11.2863 3.59313 12.4944C4.3475 13.7875 5.38 14.5 6.5 14.5H9.5C10.62 14.5 11.6525 13.7875 12.4069 12.4944C13.1119 11.2863 13.5 9.6875 13.5 8C13.5 6.3125 13.1119 4.71375 12.4069 3.50563ZM12.4869 7.5H10.4869C10.4478 6.47398 10.2435 5.46097 9.88188 4.5H11.7937C12.1762 5.33625 12.4288 6.375 12.4869 7.5ZM11.1994 3.5H9.40375C9.19491 3.1377 8.94308 2.80194 8.65375 2.5H9.5C10.125 2.5 10.7125 2.875 11.1994 3.5ZM3.5 8C3.5 5.01875 4.875 2.5 6.5 2.5C8.125 2.5 9.5 5.01875 9.5 8C9.5 10.9812 8.125 13.5 6.5 13.5C4.875 13.5 3.5 10.9812 3.5 8ZM9.5 13.5H8.65563C8.94496 13.1981 9.19678 12.8623 9.40563 12.5H11.2013C10.7125 13.125 10.125 13.5 9.5 13.5ZM11.7937 11.5H9.8825C10.2441 10.539 10.4484 9.52602 10.4875 8.5H12.4875C12.4288 9.625 12.1762 10.6637 11.7937 11.5Z"
      fill="currentColor" />
  </symbol>
  <symbol fill="none" xmlns="http://www.w3.org/2000/svg" viewBox="0 0 12 13" id="wallet-edit">
    <path
      d="M4.23649 10.999L1.51468 8.27721L8.09785 1.69404L10.8197 4.41585L4.23649 10.999ZM1.26026 8.75666L3.75704 11.2534L0.0136719 12.5L1.26026 8.75666ZM11.6568 3.5823L11.1847 4.05439L8.45931 1.32898L8.93141 0.856884C9.40696 0.381039 10.1781 0.381039 10.6537 0.856884L11.6568 1.86C12.1289 2.33715 12.1289 3.1053 11.6568 3.5823Z"
      fill="currentColor" />
  </symbol>
  <symbol fill="none" xmlns="http://www.w3.org/2000/svg" viewBox="0 0 14 14" id="wallet-exit">
    <path
      d="M13.8896 7.29076L10.3896 11.2283C10.3311 11.2952 10.2533 11.3425 10.167 11.3636C10.0806 11.3847 9.98983 11.3787 9.90701 11.3464C9.82422 11.3147 9.75297 11.2586 9.70263 11.1857C9.65229 11.1127 9.62523 11.0262 9.625 10.9375V8.3125H4.8125C4.69647 8.3125 4.58519 8.26641 4.50314 8.18436C4.42109 8.10231 4.375 7.99103 4.375 7.875V6.125C4.375 6.00897 4.42109 5.89769 4.50314 5.81564C4.58519 5.73359 4.69647 5.6875 4.8125 5.6875H9.625V3.0625C9.62496 2.97375 9.65191 2.88709 9.70228 2.81402C9.75264 2.74095 9.82404 2.68492 9.90699 2.65337C9.98994 2.62183 10.0805 2.61626 10.1667 2.6374C10.2529 2.65854 10.3306 2.70539 10.3896 2.77174L13.8896 6.70924C13.9607 6.78939 14 6.89284 14 7C14 7.10716 13.9607 7.21061 13.8896 7.29076ZM4.8125 11.375H2.625V2.625H4.8125C4.92853 2.625 5.03981 2.57891 5.12186 2.49686C5.20391 2.41481 5.25 2.30353 5.25 2.1875V0.4375C5.25 0.321468 5.20391 0.210188 5.12186 0.128141C5.03981 0.0460937 4.92853 0 4.8125 0H0.4375C0.321468 0 0.210188 0.0460937 0.128141 0.128141C0.0460937 0.210188 0 0.321468 0 0.4375V13.5625C0 13.6785 0.0460937 13.7898 0.128141 13.8719C0.210188 13.9539 0.321468 14 0.4375 14H4.8125C4.92853 14 5.03981 13.9539 5.12186 13.8719C5.20391 13.7898 5.25 13.6785 5.25 13.5625V11.8125C5.25 11.6965 5.20391 11.5852 5.12186 11.5031C5.03981 11.4211 4.92853 11.375 4.8125 11.375Z"
      fill="currentColor" />
  </symbol>
  <symbol fill="none" xmlns="http://www.w3.org/2000/svg" viewBox="0 0 16 16" id="close">
    <path
      d="M3.55636 3.00039C3.44571 3.00041 3.33759 3.03351 3.24589 3.09543C3.15419 3.15735 3.08309 3.24527 3.04174 3.3479C3.00038 3.45053 2.99066 3.56321 3.0138 3.67141C3.03695 3.77961 3.09192 3.87838 3.17165 3.95511L7.21597 7.99942L3.17165 12.0438C3.11827 12.0948 3.07559 12.1559 3.04613 12.2236C3.01666 12.2912 3.001 12.3641 3.00005 12.4379C2.9991 12.5117 3.01288 12.585 3.0406 12.6534C3.06831 12.7218 3.10939 12.784 3.16145 12.8363C3.2135 12.8887 3.27547 12.9301 3.34373 12.9582C3.41199 12.9863 3.48517 13.0005 3.55898 13C3.63279 12.9994 3.70576 12.9841 3.7736 12.9551C3.84144 12.926 3.90279 12.8836 3.95407 12.8305L8.00165 8.78512L12.0471 12.8305C12.0987 12.8823 12.16 12.9234 12.2276 12.9515C12.2951 12.9795 12.3675 12.994 12.4406 12.9941C12.5138 12.9942 12.5862 12.9798 12.6538 12.9519C12.7213 12.9239 12.7827 12.8829 12.8344 12.8312C12.8862 12.7794 12.9272 12.7181 12.9551 12.6505C12.9831 12.5829 12.9974 12.5105 12.9974 12.4373C12.9973 12.3642 12.9829 12.2918 12.9548 12.2243C12.9267 12.1567 12.8856 12.0954 12.8338 12.0438L8.78732 7.99942L12.8338 3.95511C12.9149 3.87719 12.9705 3.77649 12.9931 3.66629C13.0156 3.55609 13.0042 3.44159 12.9602 3.33805C12.9163 3.2345 12.8419 3.14678 12.7469 3.08647C12.652 3.02617 12.5409 2.99615 12.4285 3.00039C12.2844 3.00469 12.1476 3.06496 12.0471 3.16839L8.00165 7.21379L3.95407 3.16839C3.90236 3.11524 3.84053 3.07296 3.77222 3.04411C3.70391 3.01525 3.63051 3.0004 3.55636 3.00039Z"
      fill="currentColor" />
  </symbol>
  <symbol fill="none" xmlns="http://www.w3.org/2000/svg" viewBox="0 0 24 25" id="header-menu">
    <path
      d="M21.375 12.5C21.375 12.7984 21.2565 13.0845 21.0455 13.2955C20.8345 13.5065 20.5484 13.625 20.25 13.625H3.75C3.45163 13.625 3.16548 13.5065 2.9545 13.2955C2.74353 13.0845 2.625 12.7984 2.625 12.5C2.625 12.2016 2.74353 11.9155 2.9545 11.7045C3.16548 11.4935 3.45163 11.375 3.75 11.375H20.25C20.5484 11.375 20.8345 11.4935 21.0455 11.7045C21.2565 11.9155 21.375 12.2016 21.375 12.5ZM3.75 7.625H20.25C20.5484 7.625 20.8345 7.50647 21.0455 7.2955C21.2565 7.08452 21.375 6.79837 21.375 6.5C21.375 6.20163 21.2565 5.91548 21.0455 5.7045C20.8345 5.49353 20.5484 5.375 20.25 5.375H3.75C3.45163 5.375 3.16548 5.49353 2.9545 5.7045C2.74353 5.91548 2.625 6.20163 2.625 6.5C2.625 6.79837 2.74353 7.08452 2.9545 7.2955C3.16548 7.50647 3.45163 7.625 3.75 7.625ZM20.25 17.375H3.75C3.45163 17.375 3.16548 17.4935 2.9545 17.7045C2.74353 17.9155 2.625 18.2016 2.625 18.5C2.625 18.7984 2.74353 19.0845 2.9545 19.2955C3.16548 19.5065 3.45163 19.625 3.75 19.625H20.25C20.5484 19.625 20.8345 19.5065 21.0455 19.2955C21.2565 19.0845 21.375 18.7984 21.375 18.5C21.375 18.2016 21.2565 17.9155 21.0455 17.7045C20.8345 17.4935 20.5484 17.375 20.25 17.375Z"
      fill="currentColor" />
  </symbol>
  <symbol fill="none" xmlns="http://www.w3.org/2000/svg" viewBox="0 0 49 48" id="telegram">
    <path
      d="M44.2912 6.29058C43.5712 5.68002 42.4403 5.59266 41.271 6.0621H41.2691C40.0394 6.55554 6.45856 20.9594 5.09152 21.5479C4.84288 21.6343 2.67136 22.4445 2.89504 24.2493C3.09472 25.8765 4.84 26.5504 5.05312 26.6282L13.5904 29.5514C14.1568 31.4368 16.2448 38.393 16.7066 39.8791C16.9946 40.8055 17.464 42.0227 18.2867 42.2733C19.0086 42.5517 19.7267 42.2973 20.1914 41.9325L25.4109 37.0912L33.8368 43.6624L34.0374 43.7824C34.6096 44.0359 35.1578 44.1626 35.681 44.1626C36.0851 44.1626 36.473 44.0867 36.8435 43.9351C38.1059 43.4167 38.6109 42.2138 38.6637 42.0775L44.9574 9.36354C45.3414 7.61634 44.8077 6.72738 44.2912 6.29058ZM21.1197 30.7207L18.2397 38.4007L15.3597 28.8007L37.4397 12.4807L21.1197 30.7207Z"
      fill="currentColor" />
  </symbol>
  <symbol fill="none" xmlns="http://www.w3.org/2000/svg" viewBox="0 0 49 48" id="github">
    <path
      d="M17.0851 44.9625C17.7677 44.6687 18.2458 43.99 18.2458 43.1999V38.0159C18.2458 37.8268 18.2611 37.63 18.2851 37.4303C18.2717 37.4342 18.2592 37.437 18.2458 37.4399C18.2458 37.4399 15.3658 37.4399 14.7898 37.4399C13.3498 37.4399 12.1018 36.8639 11.5258 35.7119C10.8538 34.4639 10.5658 32.3519 8.83778 31.1999C8.54978 31.0079 8.74178 30.7199 9.31778 30.7199C9.89378 30.8159 11.1418 31.5839 11.9098 32.6399C12.7738 33.6959 13.6378 34.5599 15.1738 34.5599C17.5613 34.5599 18.841 34.4399 19.6109 34.0271C20.5075 32.6937 21.7488 31.6799 23.0458 31.6799V31.6559C17.6045 31.4812 14.1283 29.6726 12.5098 26.8799C8.99138 26.9202 5.92802 27.2687 4.17986 27.5586C4.12418 27.2447 4.07618 26.9289 4.0349 26.6111C5.76002 26.327 8.68418 25.99 12.0461 25.9257C11.9386 25.6607 11.8455 25.389 11.7667 25.1106C8.39618 24.9398 5.48738 25.0732 3.90722 25.2038C3.88802 24.885 3.8621 24.5673 3.85826 24.2447C5.4413 24.1151 8.27138 23.9855 11.5555 24.1382C11.4797 23.6582 11.4307 23.1676 11.4307 22.6569C11.4307 21.0249 12.0067 19.2969 13.0627 17.8569C12.5827 16.2249 11.9107 12.7689 13.2547 11.5209C15.8467 11.5209 17.6707 12.7689 18.5347 13.5369C20.1658 12.8639 21.9898 12.4799 24.0058 12.4799C26.0218 12.4799 27.8458 12.8639 29.3818 13.5359C30.2458 12.7679 32.0698 11.5199 34.6618 11.5199C36.1018 12.8639 35.3338 16.3199 34.8538 17.8559C35.9098 19.2959 36.4858 20.9279 36.3898 22.6559C36.3898 23.1206 36.3466 23.5689 36.2842 24.0086C39.6432 23.8434 42.5501 23.9759 44.16 24.1065C44.1581 24.43 44.1283 24.7458 44.1111 25.0655C42.5069 24.933 39.5271 24.7967 36.0864 24.9801C36.001 25.3026 35.8973 25.6166 35.7744 25.9209C39.1786 25.965 42.1728 26.2943 43.9805 26.5823C43.9392 26.901 43.8912 27.2169 43.8355 27.5298C42 27.2361 38.8714 26.8924 35.3117 26.8751C33.7133 29.638 30.3005 31.4399 24.9658 31.6502V31.6799C27.4618 31.6799 29.7658 35.4239 29.7658 38.0159V43.1999C29.7658 43.99 30.2439 44.6687 30.9264 44.9625C39.721 42.0518 46.0858 33.7574 46.0858 23.9999C46.0858 11.8252 36.1815 1.91992 24.0058 1.91992C11.8301 1.91992 1.92578 11.8252 1.92578 23.9999C1.92578 33.7574 8.29058 42.0518 17.0851 44.9625Z"
      fill="currentColor" />
  </symbol>
  <symbol fill="none" xmlns="http://www.w3.org/2000/svg" viewBox="0 0 49 48" id="discord">
    <path
      d="M40.6127 11.1846C39.9637 10.2044 39.045 9.45465 37.9554 9.01881C35.59 8.07033 33.5557 7.43673 31.7356 7.07961C30.4588 6.83001 29.1944 7.45785 28.5868 8.64057L28.4351 8.93625C27.0872 8.78745 25.6559 8.73753 24.0258 8.77881C22.3544 8.73849 20.9183 8.78745 19.5685 8.93625L19.4178 8.64057C18.8101 7.45785 17.5439 6.83097 16.27 7.08057C14.4498 7.43673 12.4146 8.07033 10.0501 9.01977C8.96149 9.45561 8.04277 10.2044 7.39285 11.1855C2.86069 18.0313 1.08469 25.4156 1.96405 33.7618C1.99477 34.0546 2.15797 34.3167 2.40661 34.4732C5.89333 36.6716 8.91061 38.1769 11.902 39.2118C13.1528 39.6486 14.54 39.1599 15.2783 38.0319L16.5944 36.015C15.5461 35.6194 14.5228 35.151 13.5416 34.5913C13.0818 34.3292 12.9215 33.7426 13.1836 33.2828C13.4456 32.821 14.0322 32.6588 14.493 32.9247C17.4124 34.5894 20.7128 35.4697 24.0373 35.4697C27.3618 35.4697 30.6623 34.5894 33.5816 32.9247C34.0415 32.6588 34.628 32.821 34.8911 33.2828C35.1532 33.7426 34.9928 34.3292 34.533 34.5913C33.5192 35.1702 32.4594 35.6521 31.3736 36.0543L32.7282 38.0722C33.286 38.9026 34.2066 39.375 35.1551 39.375C35.4642 39.375 35.7762 39.3241 36.0796 39.2204C39.0796 38.1846 42.1026 36.6774 45.597 34.4742C45.8456 34.3177 46.0088 34.0546 46.0396 33.7628C46.9208 25.4156 45.1448 18.0303 40.6127 11.1846ZM17.8703 27.8242C16.0213 27.8242 14.4997 25.8764 14.4997 23.5091C14.4997 21.1417 16.0213 19.1938 17.8703 19.1938C19.7192 19.1938 21.2408 21.1417 21.2408 23.5091C21.2408 25.8764 19.7192 27.8242 17.8703 27.8242ZM30.3436 27.7993C28.5119 27.7993 27.0047 25.8399 27.0047 23.4582C27.0047 21.0764 28.5119 19.117 30.3436 19.117C32.1752 19.117 33.6824 21.0764 33.6824 23.4582C33.6824 25.8399 32.1752 27.7993 30.3436 27.7993Z"
      fill="currentColor" />
  </symbol>
  <symbol fill="none" xmlns="http://www.w3.org/2000/svg" viewBox="0 0 24 24" id="twitter">
    <path
      d="M18.244 2.25H21.552L14.325 10.51L22.827 21.75H16.17L10.956 14.933L4.99003 21.75H1.68003L9.41003 12.915L1.25403 2.25H8.08003L12.793 8.481L18.244 2.25ZM17.083 19.77H18.916L7.08403 4.126H5.11703L17.083 19.77Z"
      fill="currentColor" />
  </symbol>
  <symbol fill="none" xmlns="http://www.w3.org/2000/svg" viewBox="0 0 51 52" id="medium">
    <path
      d="M28.7671 26.4769C28.7671 34.6919 22.3272 41.3516 14.3838 41.3516C6.44028 41.3516 0 34.6904 0 26.4769C0 18.2632 6.43983 11.6016 14.3838 11.6016C22.3277 11.6016 28.7671 18.2617 28.7671 26.4769ZM44.546 26.4769C44.546 34.2095 41.3261 40.4807 37.3541 40.4807C33.3821 40.4807 30.1622 34.2095 30.1622 26.4769C30.1622 18.7441 33.3817 12.4729 37.3536 12.4729C41.3256 12.4729 44.5456 18.7421 44.5456 26.4769H44.546ZM51 26.4769C51 33.4035 49.8677 39.0222 48.4706 39.0222C47.0735 39.0222 45.9417 33.4049 45.9417 26.4769C45.9417 19.5487 47.0739 13.9316 48.4706 13.9316C49.8672 13.9316 51 19.5482 51 26.4769Z"
      fill="currentColor" />
  </symbol>
  <symbol fill="none" xmlns="http://www.w3.org/2000/svg" viewBox="0 0 32 32" id="web">
    <path
      d="M16 3C13.4288 3 10.9154 3.76244 8.77759 5.1909C6.63975 6.61935 4.97351 8.64968 3.98957 11.0251C3.00563 13.4006 2.74819 16.0144 3.2498 18.5362C3.75141 21.0579 4.98953 23.3743 6.80762 25.1924C8.6257 27.0105 10.9421 28.2486 13.4638 28.7502C15.9856 29.2518 18.5995 28.9944 20.9749 28.0104C23.3503 27.0265 25.3807 25.3603 26.8091 23.2224C28.2376 21.0846 29 18.5712 29 16C28.9964 12.5533 27.6256 9.24882 25.1884 6.81163C22.7512 4.37445 19.4467 3.00364 16 3ZM12.7038 21H19.2963C18.625 23.2925 17.5 25.3587 16 26.9862C14.5 25.3587 13.375 23.2925 12.7038 21ZM12.25 19C11.9183 17.0138 11.9183 14.9862 12.25 13H19.75C20.0817 14.9862 20.0817 17.0138 19.75 19H12.25ZM5.00001 16C4.99914 14.9855 5.13923 13.9759 5.41626 13H10.2238C9.92542 14.9889 9.92542 17.0111 10.2238 19H5.41626C5.13923 18.0241 4.99914 17.0145 5.00001 16ZM19.2963 11H12.7038C13.375 8.7075 14.5 6.64125 16 5.01375C17.5 6.64125 18.625 8.7075 19.2963 11ZM21.7763 13H26.5838C27.1388 14.9615 27.1388 17.0385 26.5838 19H21.7763C22.0746 17.0111 22.0746 14.9889 21.7763 13ZM25.7963 11H21.3675C20.8572 8.99189 20.0001 7.0883 18.835 5.375C20.3236 5.77503 21.7119 6.48215 22.9108 7.45091C24.1097 8.41967 25.0926 9.62861 25.7963 11ZM13.165 5.375C11.9999 7.0883 11.1428 8.99189 10.6325 11H6.20376C6.90741 9.62861 7.89029 8.41967 9.08918 7.45091C10.2881 6.48215 11.6764 5.77503 13.165 5.375ZM6.20376 21H10.6325C11.1428 23.0081 11.9999 24.9117 13.165 26.625C11.6764 26.225 10.2881 25.5178 9.08918 24.5491C7.89029 23.5803 6.90741 22.3714 6.20376 21ZM18.835 26.625C20.0001 24.9117 20.8572 23.0081 21.3675 21H25.7963C25.0926 22.3714 24.1097 23.5803 22.9108 24.5491C21.7119 25.5178 20.3236 26.225 18.835 26.625Z"
      fill="currentColor" />
  </symbol>
  <symbol fill="none" xmlns="http://www.w3.org/2000/svg" viewBox="0 0 40 40" id="accordion-minus">
    <rect width="40" height="40" rx="20" fill="currentColor" fill-opacity="0.1" />
    <path
      d="M30 19.9998C30 20.3181 29.8736 20.6233 29.6485 20.8483C29.4235 21.0734 29.1183 21.1998 28.8 21.1998H11.2C10.8817 21.1998 10.5765 21.0734 10.3515 20.8483C10.1264 20.6233 10 20.3181 10 19.9998C10 19.6815 10.1264 19.3763 10.3515 19.1513C10.5765 18.9262 10.8817 18.7998 11.2 18.7998H28.8C29.1183 18.7998 29.4235 18.9262 29.6485 19.1513C29.8736 19.3763 30 19.6815 30 19.9998Z"
      fill="currentColor" fill-opacity="0.6" />
  </symbol>
  <symbol fill="none" xmlns="http://www.w3.org/2000/svg" viewBox="0 0 40 40" id="accordion-plus">
    <rect width="40" height="40" rx="20" fill="white" fill-opacity="0.1" />
    <path
      d="M30 20C30 20.3183 29.8736 20.6235 29.6485 20.8485C29.4235 21.0736 29.1183 21.2 28.8 21.2H21.2V28.8C21.2 29.1183 21.0736 29.4235 20.8485 29.6485C20.6235 29.8736 20.3183 30 20 30C19.6817 30 19.3765 29.8736 19.1515 29.6485C18.9264 29.4235 18.8 29.1183 18.8 28.8V21.2H11.2C10.8817 21.2 10.5765 21.0736 10.3515 20.8485C10.1264 20.6235 10 20.3183 10 20C10 19.6817 10.1264 19.3765 10.3515 19.1515C10.5765 18.9264 10.8817 18.8 11.2 18.8H18.8V11.2C18.8 10.8817 18.9264 10.5765 19.1515 10.3515C19.3765 10.1264 19.6817 10 20 10C20.3183 10 20.6235 10.1264 20.8485 10.3515C21.0736 10.5765 21.2 10.8817 21.2 11.2V18.8H28.8C29.1183 18.8 29.4235 18.9264 29.6485 19.1515C29.8736 19.3765 30 19.6817 30 20Z"
      fill="currentColor" fill-opacity="0.6" />
  </symbol>
  <symbol fill="none" xmlns="http://www.w3.org/2000/svg" viewBox="0 0 32 32" id="more">
    <path
      d="M19 8.5C19 9.88071 17.8807 11 16.5 11C15.1193 11 14 9.88071 14 8.5C14 7.11929 15.1193 6 16.5 6C17.8807 6 19 7.11929 19 8.5Z"
      fill="currentColor" />
    <path
      d="M19 16.5C19 17.8807 17.8807 19 16.5 19C15.1193 19 14 17.8807 14 16.5C14 15.1193 15.1193 14 16.5 14C17.8807 14 19 15.1193 19 16.5Z"
      fill="currentColor" />
    <path
      d="M19 24.5C19 25.8807 17.8807 27 16.5 27C15.1193 27 14 25.8807 14 24.5C14 23.1193 15.1193 22 16.5 22C17.8807 22 19 23.1193 19 24.5Z"
      fill="currentColor" />
  </symbol>
  <symbol fill="none" xmlns="http://www.w3.org/2000/svg" viewBox="0 0 16 16" id="arrow-right">
    <path
      d="M11.5306 8.5306L6.5306 13.5306C6.3897 13.6715 6.19861 13.7506 5.99935 13.7506C5.80009 13.7506 5.60899 13.6715 5.4681 13.5306C5.3272 13.3897 5.24805 13.1986 5.24805 12.9993C5.24805 12.8001 5.3272 12.609 5.4681 12.4681L9.93747 7.99997L5.46935 3.5306C5.39958 3.46083 5.34424 3.37801 5.30649 3.28686C5.26873 3.19571 5.2493 3.09801 5.2493 2.99935C5.2493 2.90069 5.26873 2.80299 5.30649 2.71184C5.34424 2.62069 5.39958 2.53786 5.46935 2.4681C5.53911 2.39833 5.62194 2.34299 5.71309 2.30524C5.80424 2.26748 5.90194 2.24805 6.0006 2.24805C6.09926 2.24805 6.19696 2.26748 6.28811 2.30524C6.37926 2.34299 6.46208 2.39833 6.53185 2.4681L11.5318 7.4681C11.6017 7.53786 11.6571 7.62072 11.6948 7.71193C11.7326 7.80313 11.7519 7.9009 11.7518 7.99961C11.7517 8.09832 11.7321 8.19603 11.6941 8.28715C11.6562 8.37827 11.6006 8.461 11.5306 8.5306Z"
      fill="currentColor" />
  </symbol>
  <symbol fill="none" xmlns="http://www.w3.org/2000/svg" viewBox="0 0 20 20" id="arrow-right-up">
    <path
      d="M15.625 5V13.125C15.625 13.2908 15.5592 13.4497 15.442 13.5669C15.3247 13.6842 15.1658 13.75 15 13.75C14.8343 13.75 14.6753 13.6842 14.5581 13.5669C14.4409 13.4497 14.375 13.2908 14.375 13.125V6.50859L5.4422 15.4422C5.32492 15.5595 5.16586 15.6253 5.00001 15.6253C4.83416 15.6253 4.6751 15.5595 4.55782 15.4422C4.44055 15.3249 4.37466 15.1659 4.37466 15C4.37466 14.8341 4.44055 14.6751 4.55782 14.5578L13.4914 5.625H6.87501C6.70925 5.625 6.55028 5.55915 6.43307 5.44194C6.31586 5.32473 6.25001 5.16576 6.25001 5C6.25001 4.83424 6.31586 4.67527 6.43307 4.55806C6.55028 4.44085 6.70925 4.375 6.87501 4.375H15C15.1658 4.375 15.3247 4.44085 15.442 4.55806C15.5592 4.67527 15.625 4.83424 15.625 5Z"
      fill="currentColor" fill-opacity="0.3" />
  </symbol>
  <symbol fill="none" xmlns="http://www.w3.org/2000/svg" viewBox="0 0 20 20" id="coins">
    <path
      d="M14.375 6.99766V6.5625C14.375 4.60312 11.4195 3.125 7.5 3.125C3.58047 3.125 0.625 4.60312 0.625 6.5625V9.6875C0.625 11.3195 2.67578 12.6164 5.625 13.0047V13.4375C5.625 15.3969 8.58047 16.875 12.5 16.875C16.4195 16.875 19.375 15.3969 19.375 13.4375V10.3125C19.375 8.69531 17.3891 7.39687 14.375 6.99766ZM18.125 10.3125C18.125 11.3453 15.7195 12.5 12.5 12.5C12.2086 12.5 11.9195 12.4898 11.6344 12.4711C13.3195 11.857 14.375 10.8594 14.375 9.6875V8.26094C16.7086 8.60859 18.125 9.55234 18.125 10.3125ZM5.625 11.7383V9.87969C6.2467 9.96069 6.87304 10.0009 7.5 10C8.12696 10.0009 8.7533 9.96069 9.375 9.87969V11.7383C8.75422 11.83 8.12751 11.8757 7.5 11.875C6.87249 11.8757 6.24578 11.83 5.625 11.7383ZM13.125 8.58828V9.6875C13.125 10.343 12.1555 11.0469 10.625 11.4742V9.64844C11.6336 9.40391 12.4875 9.03984 13.125 8.58828ZM7.5 4.375C10.7195 4.375 13.125 5.52969 13.125 6.5625C13.125 7.59531 10.7195 8.75 7.5 8.75C4.28047 8.75 1.875 7.59531 1.875 6.5625C1.875 5.52969 4.28047 4.375 7.5 4.375ZM1.875 9.6875V8.58828C2.5125 9.03984 3.36641 9.40391 4.375 9.64844V11.4742C2.84453 11.0469 1.875 10.343 1.875 9.6875ZM6.875 13.4375V13.1117C7.08047 13.1195 7.28828 13.125 7.5 13.125C7.80312 13.125 8.09922 13.1148 8.38984 13.0977C8.7127 13.2132 9.04157 13.3113 9.375 13.3914V15.2242C7.84453 14.7969 6.875 14.093 6.875 13.4375ZM10.625 15.4883V13.625C11.2465 13.7085 11.8729 13.7503 12.5 13.75C13.127 13.7509 13.7533 13.7107 14.375 13.6297V15.4883C13.1316 15.6706 11.8684 15.6706 10.625 15.4883ZM15.625 15.2242V13.3984C16.6336 13.1539 17.4875 12.7898 18.125 12.3383V13.4375C18.125 14.093 17.1555 14.7969 15.625 15.2242Z"
      fill="currentColor" fill-opacity="0.3" />
  </symbol>
  <symbol fill="none" xmlns="http://www.w3.org/2000/svg" viewBox="0 0 20 20" id="fire">
    <path
      d="M11.0766 2.1444C10.9995 2.08035 10.9082 2.03575 10.8103 2.01438C10.7124 1.99301 10.6108 1.99549 10.5141 2.02161C10.4174 2.04772 10.3283 2.09671 10.2545 2.16445C10.1806 2.23219 10.1242 2.31668 10.0898 2.41081L8.37109 7.13034L6.48359 5.30144C6.42021 5.23996 6.34451 5.19261 6.26149 5.16251C6.17847 5.13241 6.09002 5.12024 6.00196 5.12681C5.9139 5.13338 5.82823 5.15853 5.75059 5.20062C5.67296 5.2427 5.60513 5.30076 5.55156 5.37097C3.85938 7.58815 3 9.81862 3 11.9999C3 13.8232 3.72433 15.5719 5.01364 16.8612C6.30295 18.1505 8.05164 18.8749 9.875 18.8749C11.6984 18.8749 13.447 18.1505 14.7364 16.8612C16.0257 15.5719 16.75 13.8232 16.75 11.9999C16.75 7.35534 12.782 3.56237 11.0766 2.1444ZM9.875 17.6249C8.38367 17.6232 6.95389 17.0301 5.89935 15.9755C4.84482 14.921 4.25165 13.4912 4.25 11.9999C4.25 10.2811 4.88203 8.50066 6.12969 6.69987L8.18984 8.69831C8.26466 8.77097 8.35648 8.82376 8.45692 8.85185C8.55736 8.87994 8.66323 8.88246 8.76489 8.85916C8.86655 8.83586 8.96077 8.78749 9.03895 8.71846C9.11713 8.64943 9.17679 8.56193 9.2125 8.46394L10.9523 3.69284C12.7039 5.28737 15.5 8.39909 15.5 11.9999C15.4983 13.4912 14.9052 14.921 13.8506 15.9755C12.7961 17.0301 11.3663 17.6232 9.875 17.6249Z"
      fill="currentColor" fill-opacity="0.3" />

  </symbol>
</svg>