<svg width="0" height="0" class="hidden">
  <symbol fill="none" xmlns="http://www.w3.org/2000/svg" viewBox="0 0 156 87" id="logo-tokenator">
    <circle cx="77.4745" cy="43.4745" r="43.4745" fill="#1D2C4B"/>
    <g filter="url(#filter0_d_715_3152)">
      <path
          d="M139.75 41.75V26H153.25V28.25H155.5V35H151V37.25H153.25V39.5H155.5V41.75H148.75V39.5H146.5V37.25H144.25V41.75H139.75ZM144.25 35H148.75V32.75H151V28.25H144.25V35Z"
          fill="#B4FF69"/>
    </g>
    <g filter="url(#filter1_d_715_3152)">
      <path
          d="M124 41.75V39.5H121.75V28.25H124V26H135.25V28.25H137.5V39.5H135.25V41.75H124ZM126.25 39.5H133V28.25H126.25V39.5Z"
          fill="#B4FF69"/>
    </g>
    <g filter="url(#filter2_d_715_3152)">
      <path d="M110.5 41.75V28.25H106V26H119.5V28.25H115V41.75H110.5Z" fill="#B4FF69"/>
    </g>
    <g filter="url(#filter3_d_715_3152)">
      <path
          d="M87.75 41.75V30.5H90V28.25H92.25V26H99V28.25H101.25V30.5H103.5V41.75H99V37.25H92.25V41.75H87.75ZM92.25 35H99V30.5H96.75V28.25H94.5V30.5H92.25V35Z"
          fill="#B4FF69"/>
    </g>
    <g filter="url(#filter4_d_715_3152)">
      <path
          d="M69.75 41.75V26H74.25V28.25H76.5V30.5H78.75V32.75H81V26H85.5V41.75H81V37.25H78.75V35H76.5V32.75H74.25V41.75H69.75Z"
          fill="#B4FF69"/>
    </g>
    <g filter="url(#filter5_d_715_3152)">
      <path d="M51.75 41.75V26H67.5V28.25H56.25V32.75H65.25V35H56.25V39.5H67.5V41.75H51.75Z"
            fill="#B4FF69"/>
    </g>
    <g filter="url(#filter6_d_715_3152)">
      <path
          d="M33.75 41.75V26H38.25V32.75H40.5V30.5H42.75V28.25H45V26H49.5V28.25H47.25V30.5H45V32.75H42.75V35H45V37.25H47.25V39.5H49.5V41.75H42.75V39.5H40.5V37.25H38.25V41.75H33.75Z"
          fill="#B4FF69"/>
    </g>
    <g filter="url(#filter7_d_715_3152)">
      <path
          d="M18 41.75V39.5H15.75V28.25H18V26H29.25V28.25H31.5V39.5H29.25V41.75H18ZM20.25 39.5H27V28.25H20.25V39.5Z"
          fill="#B4FF69"/>
    </g>
    <g filter="url(#filter8_d_715_3152)">
      <path d="M4.5 41.75V28.25H0V26H13.5V28.25H9V41.75H4.5Z" fill="#B4FF69"/>
    </g>
    <path
        d="M55.125 60V53.75H56.375V55H57.625V56.25H58.875V57.5H60.125V53.75H61.375V60H60.125V58.75H58.875V57.5H57.625V56.25H56.375V60H55.125Z"
        fill="#B4FF69"/>
    <path d="M48.875 60V53.75H52.625V55H50.125V56.25H52.625V57.5H50.125V58.75H52.625V60H48.875Z"
          fill="#B4FF69"/>
    <path
        d="M41.375 60V53.75H42.625V56.25H43.875V57.5H45.125V58.75H46.375V60H45.125V58.75H43.875V57.5H42.625V60H41.375ZM45.125 55V53.75H46.375V55H45.125ZM43.875 56.25V55H45.125V56.25H43.875Z"
        fill="#B4FF69"/>
    <path
        d="M35.125 60V58.75H33.875V55H35.125V53.75H37.625V55H38.875V58.75H37.625V60H35.125ZM35.125 58.7H37.625V55.05H35.125V58.7Z"
        fill="#B4FF69"/>
    <path d="M28.875 60V55H27.625V53.75H31.375V55H30.125V60H28.875Z" fill="#B4FF69"/>
    <path
        d="M122.875 60V53.75H126.625V55H127.875V56.25H126.625V58.75H127.875V60H126.625V58.75H125.375V57.5H124.125V60H122.875ZM124.125 56.25H126.575V55H124.125V56.25Z"
        fill="#B4FF69"/>
    <path
        d="M116.625 60V58.75H115.375V55H116.625V53.75H119.125V55H120.375V58.75H119.125V60H116.625ZM116.625 58.7H119.125V55.05H116.625V58.7Z"
        fill="#B4FF69"/>
    <path d="M110.375 60V55H109.125V53.75H112.875V55H111.625V60H110.375Z" fill="#B4FF69"/>
    <path
        d="M101.625 60V55H102.875V53.75H105.375V55H106.625V60H105.375V57.5H102.875V60H101.625ZM102.875 56.25H105.375V55.05H102.875V56.25Z"
        fill="#B4FF69"/>
    <path
        d="M94.125 60V53.75H97.875V55H99.125V56.25H97.875V58.75H99.125V60H97.875V58.75H96.625V57.5H95.375V60H94.125ZM95.375 56.25H97.825V55H95.375V56.25Z"
        fill="#B4FF69"/>
    <path d="M87.875 60V53.75H91.625V55H89.125V56.25H91.625V57.5H89.125V58.75H91.625V60H87.875Z"
          fill="#B4FF69"/>
    <path
        d="M79.125 60V53.75H80.375V55H81.625V56.25H82.875V57.5H84.125V53.75H85.375V60H84.125V58.75H82.875V57.5H81.625V56.25H80.375V60H79.125Z"
        fill="#B4FF69"/>
    <path d="M72.875 60V53.75H76.625V55H74.125V56.25H76.625V57.5H74.125V58.75H76.625V60H72.875Z"
          fill="#B4FF69"/>
    <path
        d="M66.625 55V53.75H70.375V55H66.625ZM65.375 58.75V55H66.625V58.75H65.375ZM69.125 58.75V57.5H67.875V56.25H70.375V58.75H69.125ZM66.625 60V58.75H69.125V60H66.625Z"
        fill="#B4FF69"/>
    <defs>
      <filter id="filter0_d_715_3152" x="139.75" y="26" width="15.75" height="17.75"
              filterUnits="userSpaceOnUse"
              color-interpolation-filters="sRGB">
        <feFlood flood-opacity="0" result="BackgroundImageFix"/>
        <feColorMatrix in="SourceAlpha" type="matrix"
                       values="0 0 0 0 0 0 0 0 0 0 0 0 0 0 0 0 0 0 127 0"
                       result="hardAlpha"/>
        <feOffset dy="2"/>
        <feComposite in2="hardAlpha" operator="out"/>
        <feColorMatrix type="matrix"
                       values="0 0 0 0 0.141176 0 0 0 0 0.141176 0 0 0 0 0.141176 0 0 0 1 0"/>
        <feBlend mode="normal" in2="BackgroundImageFix" result="effect1_dropShadow_715_3152"/>
        <feBlend mode="normal" in="SourceGraphic" in2="effect1_dropShadow_715_3152" result="shape"/>
      </filter>
      <filter id="filter1_d_715_3152" x="121.75" y="26" width="15.75" height="17.75"
              filterUnits="userSpaceOnUse"
              color-interpolation-filters="sRGB">
        <feFlood flood-opacity="0" result="BackgroundImageFix"/>
        <feColorMatrix in="SourceAlpha" type="matrix"
                       values="0 0 0 0 0 0 0 0 0 0 0 0 0 0 0 0 0 0 127 0"
                       result="hardAlpha"/>
        <feOffset dy="2"/>
        <feComposite in2="hardAlpha" operator="out"/>
        <feColorMatrix type="matrix"
                       values="0 0 0 0 0.141176 0 0 0 0 0.141176 0 0 0 0 0.141176 0 0 0 1 0"/>
        <feBlend mode="normal" in2="BackgroundImageFix" result="effect1_dropShadow_715_3152"/>
        <feBlend mode="normal" in="SourceGraphic" in2="effect1_dropShadow_715_3152" result="shape"/>
      </filter>
      <filter id="filter2_d_715_3152" x="106" y="26" width="13.5" height="17.75"
              filterUnits="userSpaceOnUse"
              color-interpolation-filters="sRGB">
        <feFlood flood-opacity="0" result="BackgroundImageFix"/>
        <feColorMatrix in="SourceAlpha" type="matrix"
                       values="0 0 0 0 0 0 0 0 0 0 0 0 0 0 0 0 0 0 127 0"
                       result="hardAlpha"/>
        <feOffset dy="2"/>
        <feComposite in2="hardAlpha" operator="out"/>
        <feColorMatrix type="matrix"
                       values="0 0 0 0 0.141176 0 0 0 0 0.141176 0 0 0 0 0.141176 0 0 0 1 0"/>
        <feBlend mode="normal" in2="BackgroundImageFix" result="effect1_dropShadow_715_3152"/>
        <feBlend mode="normal" in="SourceGraphic" in2="effect1_dropShadow_715_3152" result="shape"/>
      </filter>
      <filter id="filter3_d_715_3152" x="87.75" y="26" width="15.75" height="17.75"
              filterUnits="userSpaceOnUse"
              color-interpolation-filters="sRGB">
        <feFlood flood-opacity="0" result="BackgroundImageFix"/>
        <feColorMatrix in="SourceAlpha" type="matrix"
                       values="0 0 0 0 0 0 0 0 0 0 0 0 0 0 0 0 0 0 127 0"
                       result="hardAlpha"/>
        <feOffset dy="2"/>
        <feComposite in2="hardAlpha" operator="out"/>
        <feColorMatrix type="matrix"
                       values="0 0 0 0 0.141176 0 0 0 0 0.141176 0 0 0 0 0.141176 0 0 0 1 0"/>
        <feBlend mode="normal" in2="BackgroundImageFix" result="effect1_dropShadow_715_3152"/>
        <feBlend mode="normal" in="SourceGraphic" in2="effect1_dropShadow_715_3152" result="shape"/>
      </filter>
      <filter id="filter4_d_715_3152" x="69.75" y="26" width="15.75" height="17.75"
              filterUnits="userSpaceOnUse"
              color-interpolation-filters="sRGB">
        <feFlood flood-opacity="0" result="BackgroundImageFix"/>
        <feColorMatrix in="SourceAlpha" type="matrix"
                       values="0 0 0 0 0 0 0 0 0 0 0 0 0 0 0 0 0 0 127 0"
                       result="hardAlpha"/>
        <feOffset dy="2"/>
        <feComposite in2="hardAlpha" operator="out"/>
        <feColorMatrix type="matrix"
                       values="0 0 0 0 0.141176 0 0 0 0 0.141176 0 0 0 0 0.141176 0 0 0 1 0"/>
        <feBlend mode="normal" in2="BackgroundImageFix" result="effect1_dropShadow_715_3152"/>
        <feBlend mode="normal" in="SourceGraphic" in2="effect1_dropShadow_715_3152" result="shape"/>
      </filter>
      <filter id="filter5_d_715_3152" x="51.75" y="26" width="15.75" height="17.75"
              filterUnits="userSpaceOnUse"
              color-interpolation-filters="sRGB">
        <feFlood flood-opacity="0" result="BackgroundImageFix"/>
        <feColorMatrix in="SourceAlpha" type="matrix"
                       values="0 0 0 0 0 0 0 0 0 0 0 0 0 0 0 0 0 0 127 0"
                       result="hardAlpha"/>
        <feOffset dy="2"/>
        <feComposite in2="hardAlpha" operator="out"/>
        <feColorMatrix type="matrix"
                       values="0 0 0 0 0.141176 0 0 0 0 0.141176 0 0 0 0 0.141176 0 0 0 1 0"/>
        <feBlend mode="normal" in2="BackgroundImageFix" result="effect1_dropShadow_715_3152"/>
        <feBlend mode="normal" in="SourceGraphic" in2="effect1_dropShadow_715_3152" result="shape"/>
      </filter>
      <filter id="filter6_d_715_3152" x="33.75" y="26" width="15.75" height="17.75"
              filterUnits="userSpaceOnUse"
              color-interpolation-filters="sRGB">
        <feFlood flood-opacity="0" result="BackgroundImageFix"/>
        <feColorMatrix in="SourceAlpha" type="matrix"
                       values="0 0 0 0 0 0 0 0 0 0 0 0 0 0 0 0 0 0 127 0"
                       result="hardAlpha"/>
        <feOffset dy="2"/>
        <feComposite in2="hardAlpha" operator="out"/>
        <feColorMatrix type="matrix"
                       values="0 0 0 0 0.141176 0 0 0 0 0.141176 0 0 0 0 0.141176 0 0 0 1 0"/>
        <feBlend mode="normal" in2="BackgroundImageFix" result="effect1_dropShadow_715_3152"/>
        <feBlend mode="normal" in="SourceGraphic" in2="effect1_dropShadow_715_3152" result="shape"/>
      </filter>
      <filter id="filter7_d_715_3152" x="15.75" y="26" width="15.75" height="17.75"
              filterUnits="userSpaceOnUse"
              color-interpolation-filters="sRGB">
        <feFlood flood-opacity="0" result="BackgroundImageFix"/>
        <feColorMatrix in="SourceAlpha" type="matrix"
                       values="0 0 0 0 0 0 0 0 0 0 0 0 0 0 0 0 0 0 127 0"
                       result="hardAlpha"/>
        <feOffset dy="2"/>
        <feComposite in2="hardAlpha" operator="out"/>
        <feColorMatrix type="matrix"
                       values="0 0 0 0 0.141176 0 0 0 0 0.141176 0 0 0 0 0.141176 0 0 0 1 0"/>
        <feBlend mode="normal" in2="BackgroundImageFix" result="effect1_dropShadow_715_3152"/>
        <feBlend mode="normal" in="SourceGraphic" in2="effect1_dropShadow_715_3152" result="shape"/>
      </filter>
      <filter id="filter8_d_715_3152" x="0" y="26" width="13.5" height="17.75"
              filterUnits="userSpaceOnUse"
              color-interpolation-filters="sRGB">
        <feFlood flood-opacity="0" result="BackgroundImageFix"/>
        <feColorMatrix in="SourceAlpha" type="matrix"
                       values="0 0 0 0 0 0 0 0 0 0 0 0 0 0 0 0 0 0 127 0"
                       result="hardAlpha"/>
        <feOffset dy="2"/>
        <feComposite in2="hardAlpha" operator="out"/>
        <feColorMatrix type="matrix"
                       values="0 0 0 0 0.141176 0 0 0 0 0.141176 0 0 0 0 0.141176 0 0 0 1 0"/>
        <feBlend mode="normal" in2="BackgroundImageFix" result="effect1_dropShadow_715_3152"/>
        <feBlend mode="normal" in="SourceGraphic" in2="effect1_dropShadow_715_3152" result="shape"/>
      </filter>
    </defs>
  </symbol>
  <symbol fill="none" xmlns="http://www.w3.org/2000/svg" viewBox="0 0 24 24" id="arrow-left">
    <path
        d="M15.7959 18.7041C16.0073 18.9154 16.126 19.2021 16.126 19.501C16.126 19.7999 16.0073 20.0865 15.7959 20.2978C15.5846 20.5092 15.2979 20.6279 14.999 20.6279C14.7002 20.6279 14.4135 20.5092 14.2022 20.2978L6.70216 12.7978C6.59728 12.6933 6.51407 12.5691 6.45729 12.4324C6.40051 12.2956 6.37128 12.149 6.37128 12.001C6.37128 11.8529 6.40051 11.7063 6.45729 11.5696C6.51407 11.4328 6.59728 11.3086 6.70216 11.2041L14.2022 3.7041C14.4135 3.49276 14.7002 3.37402 14.999 3.37402C15.2979 3.37402 15.5846 3.49276 15.7959 3.7041C16.0073 3.91544 16.126 4.20209 16.126 4.50097C16.126 4.79986 16.0073 5.08651 15.7959 5.29785L9.09373 12L15.7959 18.7041Z"
        fill="currentColor"/>
  </symbol>
  <symbol fill="none" xmlns="http://www.w3.org/2000/svg" viewBox="0 0 17 16" id="copy">
    <path
        d="M14 1.75H6C5.80109 1.75 5.61032 1.82902 5.46967 1.96967C5.32902 2.11032 5.25 2.30109 5.25 2.5V4.75H3C2.80109 4.75 2.61032 4.82902 2.46967 4.96967C2.32902 5.11032 2.25 5.30109 2.25 5.5V13.5C2.25 13.6989 2.32902 13.8897 2.46967 14.0303C2.61032 14.171 2.80109 14.25 3 14.25H11C11.1989 14.25 11.3897 14.171 11.5303 14.0303C11.671 13.8897 11.75 13.6989 11.75 13.5V11.25H14C14.1989 11.25 14.3897 11.171 14.5303 11.0303C14.671 10.8897 14.75 10.6989 14.75 10.5V2.5C14.75 2.30109 14.671 2.11032 14.5303 1.96967C14.3897 1.82902 14.1989 1.75 14 1.75ZM10.25 12.75H3.75V6.25H10.25V12.75ZM13.25 9.75H11.75V5.5C11.75 5.30109 11.671 5.11032 11.5303 4.96967C11.3897 4.82902 11.1989 4.75 11 4.75H6.75V3.25H13.25V9.75Z"
        fill="#FDFDFD"/>
  </symbol>
  <symbol fill="none" xmlns="http://www.w3.org/2000/svg" viewBox="0 0 12 13" id="wallet-edit">
    <path
        d="M4.23649 10.999L1.51468 8.27721L8.09785 1.69404L10.8197 4.41585L4.23649 10.999ZM1.26026 8.75666L3.75704 11.2534L0.0136719 12.5L1.26026 8.75666ZM11.6568 3.5823L11.1847 4.05439L8.45931 1.32898L8.93141 0.856884C9.40696 0.381039 10.1781 0.381039 10.6537 0.856884L11.6568 1.86C12.1289 2.33715 12.1289 3.1053 11.6568 3.5823Z"
        fill="currentColor"/>
  </symbol>
  <symbol fill="none" xmlns="http://www.w3.org/2000/svg" viewBox="0 0 14 14" id="wallet-exit">
    <path
        d="M13.8896 7.29076L10.3896 11.2283C10.3311 11.2952 10.2533 11.3425 10.167 11.3636C10.0806 11.3847 9.98983 11.3787 9.90701 11.3464C9.82422 11.3147 9.75297 11.2586 9.70263 11.1857C9.65229 11.1127 9.62523 11.0262 9.625 10.9375V8.3125H4.8125C4.69647 8.3125 4.58519 8.26641 4.50314 8.18436C4.42109 8.10231 4.375 7.99103 4.375 7.875V6.125C4.375 6.00897 4.42109 5.89769 4.50314 5.81564C4.58519 5.73359 4.69647 5.6875 4.8125 5.6875H9.625V3.0625C9.62496 2.97375 9.65191 2.88709 9.70228 2.81402C9.75264 2.74095 9.82404 2.68492 9.90699 2.65337C9.98994 2.62183 10.0805 2.61626 10.1667 2.6374C10.2529 2.65854 10.3306 2.70539 10.3896 2.77174L13.8896 6.70924C13.9607 6.78939 14 6.89284 14 7C14 7.10716 13.9607 7.21061 13.8896 7.29076ZM4.8125 11.375H2.625V2.625H4.8125C4.92853 2.625 5.03981 2.57891 5.12186 2.49686C5.20391 2.41481 5.25 2.30353 5.25 2.1875V0.4375C5.25 0.321468 5.20391 0.210188 5.12186 0.128141C5.03981 0.0460937 4.92853 0 4.8125 0H0.4375C0.321468 0 0.210188 0.0460937 0.128141 0.128141C0.0460937 0.210188 0 0.321468 0 0.4375V13.5625C0 13.6785 0.0460937 13.7898 0.128141 13.8719C0.210188 13.9539 0.321468 14 0.4375 14H4.8125C4.92853 14 5.03981 13.9539 5.12186 13.8719C5.20391 13.7898 5.25 13.6785 5.25 13.5625V11.8125C5.25 11.6965 5.20391 11.5852 5.12186 11.5031C5.03981 11.4211 4.92853 11.375 4.8125 11.375Z"
        fill="currentColor"/>
  </symbol>
  <symbol fill="none" xmlns="http://www.w3.org/2000/svg" viewBox="0 0 16 16" id="close">
    <path
        d="M3.55636 3.00039C3.44571 3.00041 3.33759 3.03351 3.24589 3.09543C3.15419 3.15735 3.08309 3.24527 3.04174 3.3479C3.00038 3.45053 2.99066 3.56321 3.0138 3.67141C3.03695 3.77961 3.09192 3.87838 3.17165 3.95511L7.21597 7.99942L3.17165 12.0438C3.11827 12.0948 3.07559 12.1559 3.04613 12.2236C3.01666 12.2912 3.001 12.3641 3.00005 12.4379C2.9991 12.5117 3.01288 12.585 3.0406 12.6534C3.06831 12.7218 3.10939 12.784 3.16145 12.8363C3.2135 12.8887 3.27547 12.9301 3.34373 12.9582C3.41199 12.9863 3.48517 13.0005 3.55898 13C3.63279 12.9994 3.70576 12.9841 3.7736 12.9551C3.84144 12.926 3.90279 12.8836 3.95407 12.8305L8.00165 8.78512L12.0471 12.8305C12.0987 12.8823 12.16 12.9234 12.2276 12.9515C12.2951 12.9795 12.3675 12.994 12.4406 12.9941C12.5138 12.9942 12.5862 12.9798 12.6538 12.9519C12.7213 12.9239 12.7827 12.8829 12.8344 12.8312C12.8862 12.7794 12.9272 12.7181 12.9551 12.6505C12.9831 12.5829 12.9974 12.5105 12.9974 12.4373C12.9973 12.3642 12.9829 12.2918 12.9548 12.2243C12.9267 12.1567 12.8856 12.0954 12.8338 12.0438L8.78732 7.99942L12.8338 3.95511C12.9149 3.87719 12.9705 3.77649 12.9931 3.66629C13.0156 3.55609 13.0042 3.44159 12.9602 3.33805C12.9163 3.2345 12.8419 3.14678 12.7469 3.08647C12.652 3.02617 12.5409 2.99615 12.4285 3.00039C12.2844 3.00469 12.1476 3.06496 12.0471 3.16839L8.00165 7.21379L3.95407 3.16839C3.90236 3.11524 3.84053 3.07296 3.77222 3.04411C3.70391 3.01525 3.63051 3.0004 3.55636 3.00039Z"
        fill="currentColor"/>
  </symbol>
  <symbol fill="none" xmlns="http://www.w3.org/2000/svg" viewBox="0 0 24 25" id="header-menu">
    <path
        d="M21.375 12.5C21.375 12.7984 21.2565 13.0845 21.0455 13.2955C20.8345 13.5065 20.5484 13.625 20.25 13.625H3.75C3.45163 13.625 3.16548 13.5065 2.9545 13.2955C2.74353 13.0845 2.625 12.7984 2.625 12.5C2.625 12.2016 2.74353 11.9155 2.9545 11.7045C3.16548 11.4935 3.45163 11.375 3.75 11.375H20.25C20.5484 11.375 20.8345 11.4935 21.0455 11.7045C21.2565 11.9155 21.375 12.2016 21.375 12.5ZM3.75 7.625H20.25C20.5484 7.625 20.8345 7.50647 21.0455 7.2955C21.2565 7.08452 21.375 6.79837 21.375 6.5C21.375 6.20163 21.2565 5.91548 21.0455 5.7045C20.8345 5.49353 20.5484 5.375 20.25 5.375H3.75C3.45163 5.375 3.16548 5.49353 2.9545 5.7045C2.74353 5.91548 2.625 6.20163 2.625 6.5C2.625 6.79837 2.74353 7.08452 2.9545 7.2955C3.16548 7.50647 3.45163 7.625 3.75 7.625ZM20.25 17.375H3.75C3.45163 17.375 3.16548 17.4935 2.9545 17.7045C2.74353 17.9155 2.625 18.2016 2.625 18.5C2.625 18.7984 2.74353 19.0845 2.9545 19.2955C3.16548 19.5065 3.45163 19.625 3.75 19.625H20.25C20.5484 19.625 20.8345 19.5065 21.0455 19.2955C21.2565 19.0845 21.375 18.7984 21.375 18.5C21.375 18.2016 21.2565 17.9155 21.0455 17.7045C20.8345 17.4935 20.5484 17.375 20.25 17.375Z"
        fill="currentColor"/>
  </symbol>
  <symbol fill="none" xmlns="http://www.w3.org/2000/svg" viewBox="0 0 49 48" id="telegram">
    <path
        d="M44.2912 6.29058C43.5712 5.68002 42.4403 5.59266 41.271 6.0621H41.2691C40.0394 6.55554 6.45856 20.9594 5.09152 21.5479C4.84288 21.6343 2.67136 22.4445 2.89504 24.2493C3.09472 25.8765 4.84 26.5504 5.05312 26.6282L13.5904 29.5514C14.1568 31.4368 16.2448 38.393 16.7066 39.8791C16.9946 40.8055 17.464 42.0227 18.2867 42.2733C19.0086 42.5517 19.7267 42.2973 20.1914 41.9325L25.4109 37.0912L33.8368 43.6624L34.0374 43.7824C34.6096 44.0359 35.1578 44.1626 35.681 44.1626C36.0851 44.1626 36.473 44.0867 36.8435 43.9351C38.1059 43.4167 38.6109 42.2138 38.6637 42.0775L44.9574 9.36354C45.3414 7.61634 44.8077 6.72738 44.2912 6.29058ZM21.1197 30.7207L18.2397 38.4007L15.3597 28.8007L37.4397 12.4807L21.1197 30.7207Z"
        fill="currentColor"/>
  </symbol>
  <symbol fill="none" xmlns="http://www.w3.org/2000/svg" viewBox="0 0 49 48" id="github">
    <path
        d="M17.0851 44.9625C17.7677 44.6687 18.2458 43.99 18.2458 43.1999V38.0159C18.2458 37.8268 18.2611 37.63 18.2851 37.4303C18.2717 37.4342 18.2592 37.437 18.2458 37.4399C18.2458 37.4399 15.3658 37.4399 14.7898 37.4399C13.3498 37.4399 12.1018 36.8639 11.5258 35.7119C10.8538 34.4639 10.5658 32.3519 8.83778 31.1999C8.54978 31.0079 8.74178 30.7199 9.31778 30.7199C9.89378 30.8159 11.1418 31.5839 11.9098 32.6399C12.7738 33.6959 13.6378 34.5599 15.1738 34.5599C17.5613 34.5599 18.841 34.4399 19.6109 34.0271C20.5075 32.6937 21.7488 31.6799 23.0458 31.6799V31.6559C17.6045 31.4812 14.1283 29.6726 12.5098 26.8799C8.99138 26.9202 5.92802 27.2687 4.17986 27.5586C4.12418 27.2447 4.07618 26.9289 4.0349 26.6111C5.76002 26.327 8.68418 25.99 12.0461 25.9257C11.9386 25.6607 11.8455 25.389 11.7667 25.1106C8.39618 24.9398 5.48738 25.0732 3.90722 25.2038C3.88802 24.885 3.8621 24.5673 3.85826 24.2447C5.4413 24.1151 8.27138 23.9855 11.5555 24.1382C11.4797 23.6582 11.4307 23.1676 11.4307 22.6569C11.4307 21.0249 12.0067 19.2969 13.0627 17.8569C12.5827 16.2249 11.9107 12.7689 13.2547 11.5209C15.8467 11.5209 17.6707 12.7689 18.5347 13.5369C20.1658 12.8639 21.9898 12.4799 24.0058 12.4799C26.0218 12.4799 27.8458 12.8639 29.3818 13.5359C30.2458 12.7679 32.0698 11.5199 34.6618 11.5199C36.1018 12.8639 35.3338 16.3199 34.8538 17.8559C35.9098 19.2959 36.4858 20.9279 36.3898 22.6559C36.3898 23.1206 36.3466 23.5689 36.2842 24.0086C39.6432 23.8434 42.5501 23.9759 44.16 24.1065C44.1581 24.43 44.1283 24.7458 44.1111 25.0655C42.5069 24.933 39.5271 24.7967 36.0864 24.9801C36.001 25.3026 35.8973 25.6166 35.7744 25.9209C39.1786 25.965 42.1728 26.2943 43.9805 26.5823C43.9392 26.901 43.8912 27.2169 43.8355 27.5298C42 27.2361 38.8714 26.8924 35.3117 26.8751C33.7133 29.638 30.3005 31.4399 24.9658 31.6502V31.6799C27.4618 31.6799 29.7658 35.4239 29.7658 38.0159V43.1999C29.7658 43.99 30.2439 44.6687 30.9264 44.9625C39.721 42.0518 46.0858 33.7574 46.0858 23.9999C46.0858 11.8252 36.1815 1.91992 24.0058 1.91992C11.8301 1.91992 1.92578 11.8252 1.92578 23.9999C1.92578 33.7574 8.29058 42.0518 17.0851 44.9625Z"
        fill="currentColor"/>
  </symbol>
  <symbol fill="none" xmlns="http://www.w3.org/2000/svg" viewBox="0 0 49 48" id="discord">
    <path
        d="M40.6127 11.1846C39.9637 10.2044 39.045 9.45465 37.9554 9.01881C35.59 8.07033 33.5557 7.43673 31.7356 7.07961C30.4588 6.83001 29.1944 7.45785 28.5868 8.64057L28.4351 8.93625C27.0872 8.78745 25.6559 8.73753 24.0258 8.77881C22.3544 8.73849 20.9183 8.78745 19.5685 8.93625L19.4178 8.64057C18.8101 7.45785 17.5439 6.83097 16.27 7.08057C14.4498 7.43673 12.4146 8.07033 10.0501 9.01977C8.96149 9.45561 8.04277 10.2044 7.39285 11.1855C2.86069 18.0313 1.08469 25.4156 1.96405 33.7618C1.99477 34.0546 2.15797 34.3167 2.40661 34.4732C5.89333 36.6716 8.91061 38.1769 11.902 39.2118C13.1528 39.6486 14.54 39.1599 15.2783 38.0319L16.5944 36.015C15.5461 35.6194 14.5228 35.151 13.5416 34.5913C13.0818 34.3292 12.9215 33.7426 13.1836 33.2828C13.4456 32.821 14.0322 32.6588 14.493 32.9247C17.4124 34.5894 20.7128 35.4697 24.0373 35.4697C27.3618 35.4697 30.6623 34.5894 33.5816 32.9247C34.0415 32.6588 34.628 32.821 34.8911 33.2828C35.1532 33.7426 34.9928 34.3292 34.533 34.5913C33.5192 35.1702 32.4594 35.6521 31.3736 36.0543L32.7282 38.0722C33.286 38.9026 34.2066 39.375 35.1551 39.375C35.4642 39.375 35.7762 39.3241 36.0796 39.2204C39.0796 38.1846 42.1026 36.6774 45.597 34.4742C45.8456 34.3177 46.0088 34.0546 46.0396 33.7628C46.9208 25.4156 45.1448 18.0303 40.6127 11.1846ZM17.8703 27.8242C16.0213 27.8242 14.4997 25.8764 14.4997 23.5091C14.4997 21.1417 16.0213 19.1938 17.8703 19.1938C19.7192 19.1938 21.2408 21.1417 21.2408 23.5091C21.2408 25.8764 19.7192 27.8242 17.8703 27.8242ZM30.3436 27.7993C28.5119 27.7993 27.0047 25.8399 27.0047 23.4582C27.0047 21.0764 28.5119 19.117 30.3436 19.117C32.1752 19.117 33.6824 21.0764 33.6824 23.4582C33.6824 25.8399 32.1752 27.7993 30.3436 27.7993Z"
        fill="currentColor"/>
  </symbol>
  <symbol fill="none" xmlns="http://www.w3.org/2000/svg" viewBox="0 0 24 24" id="twitter">
    <path
        d="M18.244 2.25H21.552L14.325 10.51L22.827 21.75H16.17L10.956 14.933L4.99003 21.75H1.68003L9.41003 12.915L1.25403 2.25H8.08003L12.793 8.481L18.244 2.25ZM17.083 19.77H18.916L7.08403 4.126H5.11703L17.083 19.77Z"
        fill="currentColor"/>
  </symbol>
  <symbol fill="none" xmlns="http://www.w3.org/2000/svg" viewBox="0 0 51 52" id="medium">
    <path
        d="M28.7671 26.4769C28.7671 34.6919 22.3272 41.3516 14.3838 41.3516C6.44028 41.3516 0 34.6904 0 26.4769C0 18.2632 6.43983 11.6016 14.3838 11.6016C22.3277 11.6016 28.7671 18.2617 28.7671 26.4769ZM44.546 26.4769C44.546 34.2095 41.3261 40.4807 37.3541 40.4807C33.3821 40.4807 30.1622 34.2095 30.1622 26.4769C30.1622 18.7441 33.3817 12.4729 37.3536 12.4729C41.3256 12.4729 44.5456 18.7421 44.5456 26.4769H44.546ZM51 26.4769C51 33.4035 49.8677 39.0222 48.4706 39.0222C47.0735 39.0222 45.9417 33.4049 45.9417 26.4769C45.9417 19.5487 47.0739 13.9316 48.4706 13.9316C49.8672 13.9316 51 19.5482 51 26.4769Z"
        fill="currentColor"/>
  </symbol>
  <symbol fill="none" xmlns="http://www.w3.org/2000/svg" viewBox="0 0 40 40" id="accordion-minus">
    <rect width="40" height="40" rx="20" fill="currentColor" fill-opacity="0.1"/>
    <path
        d="M30 19.9998C30 20.3181 29.8736 20.6233 29.6485 20.8483C29.4235 21.0734 29.1183 21.1998 28.8 21.1998H11.2C10.8817 21.1998 10.5765 21.0734 10.3515 20.8483C10.1264 20.6233 10 20.3181 10 19.9998C10 19.6815 10.1264 19.3763 10.3515 19.1513C10.5765 18.9262 10.8817 18.7998 11.2 18.7998H28.8C29.1183 18.7998 29.4235 18.9262 29.6485 19.1513C29.8736 19.3763 30 19.6815 30 19.9998Z"
        fill="currentColor" fill-opacity="0.6"/>
  </symbol>
  <symbol fill="none" xmlns="http://www.w3.org/2000/svg" viewBox="0 0 40 40" id="accordion-plus">
    <rect width="40" height="40" rx="20" fill="white" fill-opacity="0.1"/>
    <path
        d="M30 20C30 20.3183 29.8736 20.6235 29.6485 20.8485C29.4235 21.0736 29.1183 21.2 28.8 21.2H21.2V28.8C21.2 29.1183 21.0736 29.4235 20.8485 29.6485C20.6235 29.8736 20.3183 30 20 30C19.6817 30 19.3765 29.8736 19.1515 29.6485C18.9264 29.4235 18.8 29.1183 18.8 28.8V21.2H11.2C10.8817 21.2 10.5765 21.0736 10.3515 20.8485C10.1264 20.6235 10 20.3183 10 20C10 19.6817 10.1264 19.3765 10.3515 19.1515C10.5765 18.9264 10.8817 18.8 11.2 18.8H18.8V11.2C18.8 10.8817 18.9264 10.5765 19.1515 10.3515C19.3765 10.1264 19.6817 10 20 10C20.3183 10 20.6235 10.1264 20.8485 10.3515C21.0736 10.5765 21.2 10.8817 21.2 11.2V18.8H28.8C29.1183 18.8 29.4235 18.9264 29.6485 19.1515C29.8736 19.3765 30 19.6817 30 20Z"
        fill="currentColor" fill-opacity="0.6"/>
  </symbol>
</svg>
