<svg width="100" height="88" viewBox="0 0 100 88" fill="none" xmlns="http://www.w3.org/2000/svg">
	<circle cx="50.4745" cy="44.4745" r="43.4745" fill="#1D2C4B" />
	<path
		d="M71 40.5V28H73.5V25.5H76V23H83.5V25.5H86V28H88.5V40.5H83.5V35.5H76V40.5H71ZM76 33H83.5V28H81V25.5H78.5V28H76V33Z"
		fill="#B4FF69" />
	<path
		d="M51 40.5V23H66V25.5H68.5V33H63.5V35.5H66V38H68.5V40.5H61V38H58.5V35.5H56V40.5H51ZM56 33H61V30.5H63.5V25.5H56V33Z"
		fill="#B4FF69" />
	<path
		d="M31 40.5V28H33.5V25.5H36V23H43.5V25.5H46V28H48.5V40.5H43.5V35.5H36V40.5H31ZM36 33H43.5V28H41V25.5H38.5V28H36V33Z"
		fill="#B4FF69" />
	<path
		d="M18.5 40.5V38H16V35.5H13.5V33H11V23H16V30.5H18.5V33H21V30.5H23.5V23H28.5V33H26V35.5H23.5V38H21V40.5H18.5Z"
		fill="#B4FF69" />
	<path
		d="M83.5 64V61.5H81V59H86V61.5H93.5V56.5H83.5V54H81V49H83.5V46.5H96V49H98.5V51.5H93.5V49H86V54H96V56.5H98.5V61.5H96V64H83.5Z"
		fill="#B4FF69" />
	<path d="M61 64V46.5H78.5V49H66V54H76V56.5H66V61.5H78.5V64H61Z" fill="#B4FF69" />
	<path d="M41 64V46.5H46V49H48.5V51.5H51V49H53.5V46.5H58.5V64H53.5V54H51V59H48.5V54H46V64H41Z"
		fill="#B4FF69" />
	<path d="M21 64V46.5H38.5V49H26V54H36V56.5H26V61.5H38.5V64H21Z" fill="#B4FF69" />
	<path d="M1 64V46.5H6V49H8.5V51.5H11V49H13.5V46.5H18.5V64H13.5V54H11V59H8.5V54H6V64H1Z"
		fill="#B4FF69" />
</svg>
	